<?xml version="1.0" encoding="utf-8"?>
<!-- Generator: Adobe Illustrator 16.0.0, SVG Export Plug-In . SVG Version: 6.00 Build 0)  -->
<!DOCTYPE svg PUBLIC "-//W3C//DTD SVG 1.1//EN" "http://www.w3.org/Graphics/SVG/1.1/DTD/svg11.dtd">
<svg version="1.1" id="collect_1_" xmlns="http://www.w3.org/2000/svg" xmlns:xlink="http://www.w3.org/1999/xlink" x="0px" y="0px"
	 width="349.999px" height="350px" viewBox="-50 -50 449.999 450" style="fill: white;" enable-background="new 0 0 349.999 350" xml:space="preserve">
<g id="collect">
	<g>
		<g>
			<g>
				<g>
					<path d="M338.102,335.884h-86.509c-6.506,0-11.77-5.259-11.77-11.77v-55.121c0-6.502,5.264-11.751,11.77-11.751h22.451
						l9.792-10.925c0.741-0.825,1.774-1.282,2.893-1.282h16.243c1.084,0,2.152,0.457,2.888,1.282l9.757,10.925h22.486
						c6.477,0,11.775,5.249,11.775,11.751v55.121C349.876,330.625,344.578,335.884,338.102,335.884z M251.592,264.986
						c-2.222,0-3.986,1.8-3.986,4.008v55.121c0,2.167,1.764,3.966,3.986,3.966h86.509c2.192,0,3.996-1.799,3.996-3.966v-55.121
						c0-2.208-1.804-4.008-3.996-4.008h-24.21c-1.119,0-2.162-0.486-2.888-1.272l-9.797-10.944h-12.759l-9.762,10.965
						c-0.726,0.766-1.804,1.252-2.922,1.252H251.592z"/>
				</g>
				<g>
					<path d="M294.83,323.37c-14.887,0-26.999-12.169-26.999-27.03c0-14.92,12.112-26.969,26.999-26.969
						c14.921,0,27.034,12.049,27.034,26.969C321.863,311.201,309.751,323.37,294.83,323.37z M294.83,277.115
						c-10.602,0-19.215,8.599-19.215,19.225c0,10.587,8.613,19.275,19.215,19.275c10.607,0,19.255-8.688,19.255-19.275
						C314.084,285.713,305.437,277.115,294.83,277.115z"/>
				</g>
				<g>
					<path d="M283.512,298.905c-1.426,0-2.594-1.123-2.594-2.565c0-7.635,6.263-13.937,13.912-13.937
						c1.432,0,2.589,1.203,2.589,2.634c0,1.422-1.158,2.565-2.589,2.565c-4.796,0-8.718,3.946-8.718,8.737
						C286.112,297.782,284.943,298.905,283.512,298.905z"/>
				</g>
				<g>
					<path d="M266.439,275.792h-9.841c-1.432,0-2.6-1.123-2.6-2.564c0-1.432,1.168-2.635,2.6-2.635h9.841
						c1.431,0,2.599,1.203,2.599,2.635C269.038,274.669,267.87,275.792,266.439,275.792z"/>
				</g>
				<g>
					<path d="M333.25,275.792h-3.911c-1.432,0-2.59-1.123-2.59-2.564c0-1.432,1.158-2.635,2.59-2.635h3.911
						c1.432,0,2.595,1.203,2.595,2.635C335.845,274.669,334.682,275.792,333.25,275.792z"/>
				</g>
				<g>
					<path d="M296.823,263.098h-3.952c-1.421,0-2.594-1.143-2.594-2.564s1.173-2.635,2.594-2.635h3.952
						c1.426,0,2.595,1.213,2.595,2.635S298.249,263.098,296.823,263.098z"/>
				</g>
				<g>
					<path d="M264.868,314.87h-21.169c-1.431,0-2.6-1.123-2.6-2.545c0-1.441,1.168-2.645,2.6-2.645h21.169
						c1.431,0,2.589,1.203,2.589,2.645C267.458,313.747,266.299,314.87,264.868,314.87z"/>
				</g>
				<g>
					<path d="M345.975,314.87h-20.578c-1.437,0-2.595-1.123-2.595-2.545c0-1.441,1.158-2.645,2.595-2.645h20.578
						c1.426,0,2.589,1.203,2.589,2.645C348.564,313.747,347.401,314.87,345.975,314.87z"/>
				</g>
			</g>
			<g>
				<g>
					<path d="M332.495,142.193h-78.299c-7.853,0-14.274-6.417-14.274-14.304V14.246C239.922,6.427,246.344,0,254.196,0h78.299
						c7.888,0,14.29,6.427,14.29,14.246v113.643C346.785,135.777,340.383,142.193,332.495,142.193z M254.196,7.74
						c-3.563,0-6.5,2.977-6.5,6.506v113.643c0,3.598,2.938,6.485,6.5,6.485h78.299c3.574,0,6.511-2.888,6.511-6.485V14.246
						c0-3.53-2.938-6.506-6.511-6.506H254.196z"/>
				</g>
				<g>
					<path d="M296.877,132.138h-4.672c-1.431,0-2.589-1.143-2.589-2.555c0-1.446,1.158-2.629,2.589-2.629h4.672
						c1.437,0,2.595,1.183,2.595,2.629C299.472,130.995,298.314,132.138,296.877,132.138z"/>
				</g>
				<g>
					<path d="M342.878,21.373h-99.05c-1.437,0-2.594-1.107-2.594-2.564c0-1.411,1.158-2.624,2.594-2.624h99.05
						c1.431,0,2.595,1.213,2.595,2.624C345.473,20.265,344.31,21.373,342.878,21.373z"/>
				</g>
				<g>
					<path d="M342.878,124.558h-99.05c-1.437,0-2.594-1.143-2.594-2.555c0-1.446,1.158-2.629,2.594-2.629h99.05
						c1.431,0,2.595,1.183,2.595,2.629C345.473,123.416,344.31,124.558,342.878,124.558z"/>
				</g>
			</g>
			<g>
				<g>
					<path d="M82.286,125.463H44.446c-7.888,0-14.29-6.367-14.29-14.259V30.981c0-7.893,6.402-14.32,14.29-14.32h37.839
						c7.888,0,14.29,6.427,14.29,14.32v80.222C96.576,119.096,90.174,125.463,82.286,125.463z M44.446,24.485
						c-3.609,0-6.501,2.888-6.501,6.497v80.222c0,3.607,2.892,6.516,6.501,6.516h37.839c3.574,0,6.507-2.908,6.507-6.516V30.981
						c0-3.609-2.933-6.497-6.507-6.497H44.446z"/>
				</g>
				<g>
					<path d="M65.695,114.896h-4.658c-1.431,0-2.599-1.218-2.599-2.64c0-1.441,1.168-2.555,2.599-2.555h4.658
						c1.432,0,2.594,1.113,2.594,2.555C68.289,113.678,67.126,114.896,65.695,114.896z"/>
				</g>
				<g>
					<path d="M73.742,32.432H52.99c-0.746,0-1.471-0.348-1.998-0.899l-6.362-7.461c-0.904-1.063-0.79-2.749,0.309-3.688
						c1.068-0.945,2.714-0.755,3.638,0.308l5.606,6.556h18.361l5.617-6.556c0.935-1.063,2.569-1.243,3.633-0.308
						c1.098,0.938,1.212,2.624,0.273,3.688l-6.372,7.461C75.203,32.084,74.492,32.432,73.742,32.432z"/>
				</g>
			</g>
			<g>
				<g>
					<path d="M119.136,329.93H22.482c-5.005,0-9.066-4.036-9.066-9.066v-60.838c0-5.029,4.061-9.056,9.066-9.056h96.654
						c5.005,0,9.071,4.026,9.071,9.056v60.838C128.207,325.894,124.142,329.93,119.136,329.93z M22.482,258.724
						c-0.706,0-1.277,0.567-1.277,1.302v60.838c0,0.666,0.571,1.321,1.277,1.321h96.654c0.706,0,1.282-0.655,1.282-1.321v-60.838
						c0-0.734-0.577-1.302-1.282-1.302H22.482z"/>
				</g>
				<g>
					<path d="M134.704,350H6.915c-2.888,0-5.165-1.263-6.208-3.37c-1.078-2.187-0.646-4.692,1.153-7.019l9.195-11.81
						c2.46-3.23,7.381-5.617,11.427-5.617h96.654c4.041,0,8.972,2.387,11.427,5.617l9.2,11.81c1.794,2.326,2.221,4.832,1.148,7.019
						C139.873,348.738,137.591,350,134.704,350z M9.698,342.176h122.217l-7.495-9.622c-1.004-1.322-3.624-2.624-5.284-2.624H22.482
						c-1.661,0-4.28,1.302-5.284,2.624L9.698,342.176z"/>
				</g>
				<g>
					<path d="M124.326,268.307H17.293c-1.427,0-2.594-1.123-2.594-2.545s1.167-2.624,2.594-2.624h107.033
						c1.431,0,2.599,1.202,2.599,2.624S125.757,268.307,124.326,268.307z"/>
				</g>
				<g>
					<path d="M84.05,339.851H57.568c-1.432,0-2.594-1.144-2.594-2.545c0-1.461,1.163-2.644,2.594-2.644H84.05
						c1.431,0,2.59,1.183,2.59,2.644C86.64,338.708,85.481,339.851,84.05,339.851z"/>
				</g>
			</g>
			<g>
				<g>
					<path d="M136.433,232.838c-12.978,0-30.096-1.521-37.914-8.957c-6.297-6.024-9.906-14.364-9.906-23.063
						c0-15.761,11.596-28.997,26.89-31.442c6.322-24.086,28.411-41.269,53.581-41.269c19.5,0,37.348,10.135,47.373,26.8
						c3.201-1.113,6.521-1.645,9.936-1.645c17.531,0,31.806,14.31,31.806,31.835c0,1.183-0.06,2.484-0.234,3.767
						c8.777,3.212,14.842,11.532,14.842,21.219c0,12.406-10.125,22.557-22.571,22.557H144.64
						C144.635,232.66,141.279,232.838,136.433,232.838z M169.083,135.856c-22.481,0-42.054,15.95-46.592,37.935
						c-0.368,1.665-1.824,2.947-3.559,3.066c-12.639,0.781-22.53,11.268-22.53,23.962c0,6.552,2.744,12.933,7.495,17.427
						c4.553,4.304,16.437,6.839,32.536,6.839c4.672,0,7.833-0.249,7.933-0.249l105.869-0.02c8.161,0,14.797-6.61,14.797-14.732
						c0-7.262-5.145-13.276-12.212-14.559c-1.043-0.159-1.983-0.824-2.589-1.724c-0.572-0.925-0.771-1.988-0.512-3.007
						c0.472-1.969,0.706-3.813,0.706-5.696c0-13.231-10.786-24.027-24.032-24.027c-3.474,0-6.829,0.71-10.05,2.177
						c-1.884,0.89-4.105,0.169-5.07-1.686C203.032,145.693,186.853,135.856,169.083,135.856z"/>
				</g>
				<g>
					<g>
						<path d="M179.859,180.565l8.817-19.325c0,0,0.02,0,0.03,0c2.172,0,3.937-1.805,3.937-3.987c0-2.137-1.765-3.901-3.937-3.901
							c-2.172,0-3.946,1.765-3.946,3.901c0,0.811,0.244,1.591,0.656,2.182l-7.774,17.059l-7.6-16.625
							c0.577-0.741,0.964-1.576,0.964-2.616c0-2.137-1.765-3.901-3.932-3.901c-2.177,0-3.917,1.765-3.917,3.901
							c0,2.063,1.486,3.678,3.419,3.948l8.788,19.324c0.646-0.417,1.417-0.701,2.242-0.701S179.233,180.128,179.859,180.565z"/>
					</g>
					<g>
						<path d="M175.366,187.563l-8.788,19.369c-1.933,0.18-3.419,1.89-3.419,3.848c0,2.227,1.74,3.937,3.917,3.937
							c2.167,0,3.932-1.71,3.932-3.937c0-0.975-0.388-1.879-0.964-2.525l7.6-16.74l7.774,17.089
							c-0.413,0.675-0.656,1.381-0.656,2.177c0,2.227,1.774,3.937,3.946,3.937c2.172,0,3.937-1.71,3.937-3.937
							c0-2.177-1.765-3.888-3.937-3.888c-0.01,0-0.03,0-0.03,0l-8.817-19.35c-0.626,0.443-1.426,0.643-2.251,0.643
							S176.013,187.986,175.366,187.563z"/>
					</g>
					<g>
						<path d="M174.108,181.748l-19.3-8.723v-0.02c0-2.222-1.764-3.986-3.961-3.986c-2.152,0-3.912,1.764-3.912,3.986
							c0,2.127,1.76,3.911,3.912,3.911c0.819,0,1.565-0.198,2.152-0.641l17.093,7.739l-16.671,7.58
							c-0.691-0.563-1.561-0.944-2.574-0.944c-2.152,0-3.912,1.769-3.912,3.971c0,2.127,1.76,3.932,3.912,3.932
							c2.038,0,3.667-1.506,3.911-3.429l19.35-8.823c-0.432-0.642-0.666-1.441-0.666-2.286
							C173.443,183.174,173.676,182.453,174.108,181.748z"/>
					</g>
					<g>
						<path d="M204.349,190.65c-0.984,0-1.889,0.382-2.544,0.944l-16.667-7.58l17.059-7.739c0.617,0.443,1.362,0.641,2.152,0.641
							c2.187,0,3.937-1.784,3.937-3.911c0-2.222-1.75-3.986-3.937-3.986c-2.162,0-3.931,1.764-3.931,3.986l0.005,0.02l-19.305,8.723
							c0.433,0.706,0.666,1.427,0.666,2.267c0,0.845-0.233,1.645-0.666,2.286l19.354,8.823c0.239,1.923,1.874,3.429,3.877,3.429
							c2.187,0,3.937-1.805,3.937-3.932C208.285,192.418,206.536,190.65,204.349,190.65z"/>
					</g>
				</g>
			</g>
			<g>
				<path d="M69.07,243.485c-0.959,0-1.884-0.497-2.336-1.441c-2.346-4.712-4.378-9.683-6.138-14.613
					c-0.472-1.372,0.249-2.833,1.605-3.31c1.372-0.468,2.838,0.219,3.3,1.58c1.665,4.751,3.628,9.464,5.885,14.037
					c0.651,1.242,0.104,2.843-1.163,3.448C69.84,243.345,69.462,243.485,69.07,243.485z M58.885,214.129
					c-1.193,0-2.281-0.795-2.535-2.038c-1.103-5.159-1.869-10.412-2.316-15.686c-0.099-1.401,0.94-2.704,2.361-2.783
					c1.466-0.04,2.704,0.938,2.803,2.365c0.432,5.05,1.178,10.08,2.232,15.06c0.298,1.402-0.606,2.784-2.018,3.043
					C59.233,214.11,59.074,214.129,58.885,214.129z M56.291,183.253c-0.02,0-0.06,0-0.119,0c-1.432-0.04-2.515-1.282-2.475-2.709
					c0.219-5.273,0.746-10.567,1.621-15.75c0.228-1.417,1.53-2.411,2.957-2.187c1.412,0.268,2.371,1.551,2.143,2.968
					c-0.81,5.004-1.322,10.119-1.536,15.214C58.841,182.19,57.682,183.253,56.291,183.253z M61.351,152.631
					c-0.249,0-0.492-0.03-0.741-0.08c-1.372-0.432-2.142-1.864-1.729-3.25c1.496-5.075,3.34-10.095,5.478-14.926
					c0.586-1.327,2.087-1.883,3.435-1.337c1.282,0.622,1.903,2.158,1.297,3.469c-2.013,4.583-3.797,9.444-5.244,14.28
					C63.533,151.891,62.474,152.631,61.351,152.631z"/>
			</g>
			<g>
				<g>
					<path d="M219.852,305.803c-1.059,0-2.083-0.715-2.431-1.76c-0.482-1.361,0.233-2.832,1.556-3.31
						c2.43-0.846,4.792-1.79,7.127-2.743c1.292-0.567,2.838,0.119,3.39,1.381c0.537,1.343-0.06,2.823-1.392,3.449
						c-2.416,1.024-4.901,1.959-7.386,2.844C220.443,305.763,220.129,305.803,219.852,305.803z"/>
				</g>
				<g>
					<path d="M176.485,312.762c0,0-0.02,0-0.035,0c-4.98-0.06-10.035-0.438-14.981-1.163c-1.417-0.159-2.4-1.462-2.206-2.883
						c0.198-1.422,1.436-2.466,2.902-2.267c4.737,0.695,9.588,1.083,14.36,1.123c1.437,0.04,2.575,1.184,2.56,2.604
						C179.064,311.579,177.901,312.762,176.485,312.762z M191.172,312.126c-1.297,0-2.436-1.005-2.585-2.347
						c-0.124-1.412,0.9-2.635,2.331-2.833c4.807-0.477,9.578-1.223,14.23-2.247c1.412-0.298,2.769,0.567,3.102,1.969
						c0.298,1.422-0.602,2.783-1.999,3.071c-4.826,1.124-9.801,1.879-14.787,2.366C191.346,312.126,191.277,312.126,191.172,312.126
						z"/>
				</g>
				<g>
					<path d="M147.354,308.795c-0.184,0-0.408-0.039-0.631-0.079c-2.575-0.626-5.12-1.402-7.635-2.227
						c-1.342-0.468-2.102-1.929-1.66-3.291c0.442-1.302,1.909-2.067,3.266-1.62c2.406,0.815,4.871,1.481,7.316,2.078
						c1.392,0.387,2.247,1.809,1.864,3.21C149.58,308.05,148.511,308.795,147.354,308.795z"/>
				</g>
			</g>
			<g>
				<path d="M297.37,234.707c-0.289,0-0.582-0.039-0.905-0.139c-1.317-0.507-2.003-2.067-1.511-3.33
					c1.754-4.752,3.26-9.682,4.429-14.583c0.313-1.402,1.714-2.307,3.111-1.918c1.392,0.277,2.237,1.659,1.924,3.081
					c-1.203,5.14-2.769,10.249-4.618,15.159C299.427,234.061,298.448,234.707,297.37,234.707z M304.497,204.507
					c-0.08,0-0.159,0-0.273-0.021c-1.417-0.139-2.44-1.441-2.276-2.848c0.308-2.908,0.522-5.935,0.606-8.883
					c0.04-1.441,0.064-2.907,0.064-4.329l-0.005-1.987c-0.02-1.422,1.118-2.624,2.55-2.664c1.376-0.119,2.615,1.103,2.634,2.524
					l0.015,2.127c0,1.481-0.024,2.987-0.074,4.488c-0.089,3.152-0.318,6.238-0.666,9.265
					C306.953,203.523,305.824,204.507,304.497,204.507z M303.985,173.467c-1.257,0-2.376-0.92-2.569-2.267
					c-0.706-4.95-1.73-10.01-3.077-14.841c-0.358-1.382,0.442-2.818,1.833-3.217c1.377-0.373,2.809,0.438,3.201,1.845
					c1.357,5.079,2.45,10.303,3.186,15.552c0.214,1.406-0.771,2.748-2.182,2.907C304.229,173.447,304.119,173.467,303.985,173.467z"
					/>
			</g>
			<g>
				<path d="M105.08,89.368c-0.771,0-1.561-0.383-2.063-1.094c-0.845-1.103-0.666-2.693,0.473-3.578
					c4.19-3.216,8.633-6.163,13.171-8.872c1.238-0.741,2.828-0.308,3.554,0.945c0.726,1.192,0.333,2.823-0.929,3.508
					c-4.359,2.614-8.614,5.443-12.62,8.479C106.198,89.14,105.626,89.368,105.08,89.368z M131.875,73.666
					c-1.019,0-1.978-0.591-2.376-1.57c-0.586-1.337,0.04-2.828,1.342-3.38c4.866-2.118,9.876-3.853,14.976-5.284
					c1.387-0.412,2.808,0.344,3.181,1.716c0.413,1.392-0.373,2.828-1.769,3.225c-4.871,1.406-9.677,3.131-14.34,5.095
					C132.566,73.587,132.213,73.666,131.875,73.666z M229.19,73.507c-0.362,0-0.681-0.039-1.034-0.159
					c-1.978-0.865-4.016-1.685-6.024-2.375c-1.356-0.562-2.063-2.018-1.57-3.39c0.477-1.292,1.963-2.002,3.32-1.536
					c2.118,0.806,4.22,1.646,6.308,2.471c1.332,0.601,1.928,2.123,1.387,3.459C231.144,72.956,230.185,73.507,229.19,73.507z
					 M208.077,66.792c-0.194,0-0.358-0.039-0.552-0.144c-4.925-1.068-9.995-1.894-15.04-2.376c-1.432-0.109-2.491-1.401-2.336-2.833
					c0.149-1.437,1.397-2.431,2.828-2.336c5.264,0.572,10.557,1.353,15.687,2.545c1.362,0.268,2.256,1.655,1.943,3.066
					C210.353,65.927,209.254,66.792,208.077,66.792z M161.698,65.148c-1.252,0-2.371-0.905-2.564-2.158
					c-0.224-1.411,0.78-2.743,2.192-2.987c5.213-0.75,10.507-1.232,15.806-1.422c1.461,0.011,2.614,1.144,2.654,2.555
					c0.024,1.446-1.108,2.6-2.53,2.64c-5.05,0.178-10.16,0.622-15.155,1.352C161.956,65.148,161.837,65.148,161.698,65.148z"/>
			</g>
		</g>
	</g>
	<g>
		<g>
			<path d="M162.274,132.601c-1.406,0-2.544-1.138-2.544-2.545v-9.712c0-1.406,1.138-2.545,2.544-2.545
				c1.407,0,2.545,1.139,2.545,2.545v9.712C164.819,131.462,163.681,132.601,162.274,132.601z M162.274,110.671
				c-1.406,0-2.544-1.139-2.544-2.545v-5.502h-1.625c-1.407,0-2.545-1.139-2.545-2.545s1.138-2.545,2.545-2.545h4.17
				c1.407,0,2.545,1.139,2.545,2.545v8.047C164.819,109.533,163.681,110.671,162.274,110.671z M145.892,102.625h-12.217
				c-1.407,0-2.545-1.139-2.545-2.545s1.138-2.545,2.545-2.545h12.217c1.407,0,2.544,1.139,2.544,2.545
				S147.299,102.625,145.892,102.625z M121.462,102.625h-12.217c-1.407,0-2.545-1.139-2.545-2.545s1.138-2.545,2.545-2.545h12.217
				c1.407,0,2.545,1.139,2.545,2.545S122.869,102.625,121.462,102.625z"/>
		</g>
		<g>
			<path d="M182.966,135.175c-1.407,0-2.545-1.138-2.545-2.544v-12.218c0-1.406,1.139-2.544,2.545-2.544s2.544,1.138,2.544,2.544
				v12.218C185.511,134.037,184.373,135.175,182.966,135.175z M182.966,110.746c-1.407,0-2.545-1.138-2.545-2.545v-7.898
				c0-1.406,1.139-2.545,2.545-2.545h4.319c1.407,0,2.545,1.139,2.545,2.545s-1.138,2.545-2.545,2.545h-1.774v5.353
				C185.511,109.608,184.373,110.746,182.966,110.746z M231.303,102.848h-7.371c-1.407,0-2.545-1.139-2.545-2.545
				s1.139-2.545,2.545-2.545h7.371c1.407,0,2.545,1.139,2.545,2.545S232.709,102.848,231.303,102.848z M211.715,102.848h-12.212
				c-1.407,0-2.545-1.139-2.545-2.545s1.138-2.545,2.545-2.545h12.212c1.406,0,2.545,1.139,2.545,2.545
				S213.121,102.848,211.715,102.848z"/>
		</g>
		<g>
			<path d="M230.925,284.083h-6.983c-1.406,0-2.545-1.144-2.545-2.545c0-1.402,1.139-2.546,2.545-2.546h6.983
				c1.407,0,2.545,1.144,2.545,2.546C233.47,282.94,232.332,284.083,230.925,284.083z M211.725,284.083h-12.212
				c-1.407,0-2.545-1.144-2.545-2.545c0-1.402,1.139-2.546,2.545-2.546h12.212c1.407,0,2.545,1.144,2.545,2.546
				C214.27,282.94,213.131,284.083,211.725,284.083z M187.295,284.083h-3.32c-1.407,0-2.545-1.144-2.545-2.545v-8.897
				c0-1.401,1.138-2.545,2.545-2.545s2.544,1.144,2.544,2.545v6.352h0.775c1.407,0,2.545,1.144,2.545,2.546
				C189.84,282.94,188.702,284.083,187.295,284.083z M183.975,262.968c-1.407,0-2.545-1.143-2.545-2.544v-12.207
				c0-1.402,1.138-2.546,2.545-2.546s2.544,1.144,2.544,2.546v12.207C186.52,261.826,185.382,262.968,183.975,262.968z
				 M183.975,238.543c-1.407,0-2.545-1.143-2.545-2.545v-6.55l5.089-0.854v7.404C186.52,237.401,185.382,238.543,183.975,238.543z"
				/>
		</g>
		<g>
			<path d="M134.013,281.539c0-1.402,1.138-2.546,2.545-2.546h10.174c1.407,0,2.545,1.144,2.545,2.546
				c0,1.401-1.138,2.545-2.545,2.545h-10.174C135.151,284.083,134.013,282.94,134.013,281.539z M156.404,281.539
				c0-1.402,1.138-2.546,2.545-2.546h0.775v-6.352c0-1.401,1.138-2.545,2.544-2.545c1.407,0,2.545,1.144,2.545,2.545v8.897
				c0,1.401-1.139,2.545-2.545,2.545h-3.32C157.542,284.083,156.404,282.94,156.404,281.539z M159.725,260.424v-12.207
				c0-1.402,1.138-2.546,2.544-2.546c1.407,0,2.545,1.144,2.545,2.546v12.207c0,1.401-1.139,2.544-2.545,2.544
				C160.863,262.968,159.725,261.826,159.725,260.424z M159.725,235.999v-7.404l5.09,0.854v6.55c0,1.402-1.139,2.545-2.545,2.545
				C160.863,238.543,159.725,237.401,159.725,235.999z"/>
		</g>
	</g>
</g>
</svg>
