<?xml version="1.0" encoding="utf-8"?>
<!-- Generator: Adobe Illustrator 16.0.0, SVG Export Plug-In . SVG Version: 6.00 Build 0)  -->
<!DOCTYPE svg PUBLIC "-//W3C//DTD SVG 1.1//EN" "http://www.w3.org/Graphics/SVG/1.1/DTD/svg11.dtd">
<svg version="1.1" id="organize_1_" xmlns="http://www.w3.org/2000/svg" xmlns:xlink="http://www.w3.org/1999/xlink" x="0px"
	 y="0px" width="350px" height="350px" viewBox="-50 -50 450 450" style="fill: white;" enable-background="new 0 0 350 320" xml:space="preserve">
<g id="organize">
	<g>
		<g>
			<path d="M63.153,215.053c-0.069,0-0.148,0-0.224,0c-19.328-1.189-34.848-6.846-44.889-16.369C6.576,187.801,0,172.504,0,156.7
				c0-29.542,22.408-54.266,51.508-57.46c10.893-46.452,52.88-79.887,100.876-79.887c37.629,0,71.924,20.193,90.304,52.926
				c6.754-2.66,13.822-4.009,21.064-4.009c31.908,0,57.865,25.965,57.865,57.879c0,3.307-0.303,6.683-0.922,10.074
				c17.186,4.702,29.305,20.31,29.305,38.443c0,22.008-17.9,39.904-39.903,39.904c-0.014,0-0.028,0-0.052,0
				c-0.483,0-7.771,0-10.896,0c-2.014,0-3.646-1.637-3.646-3.646s1.633-3.646,3.646-3.646c6.633,0,9.539,0,10.948,0.074v-0.074
				c17.979,0,32.611-14.621,32.611-32.611c0-15.854-11.339-29.346-26.956-32.086c-0.99-0.172-1.869-0.753-2.428-1.595
				c-0.549-0.846-0.726-1.879-0.483-2.86c0.981-4.041,1.483-8.073,1.483-11.976c0-27.891-22.687-50.582-50.572-50.582
				c-7.316,0-14.432,1.577-21.162,4.684c-1.767,0.818-3.869,0.098-4.767-1.628c-16.673-32.058-49.41-51.973-85.439-51.973
				c-45.467,0-85.133,32.267-94.318,76.733c-0.33,1.609-1.702,2.8-3.344,2.902C28.128,107.927,7.297,130.074,7.297,156.7
				c0,13.813,5.749,27.192,15.767,36.7c8.776,8.314,22.719,13.281,40.313,14.361c2.009,0.129,3.539,1.859,3.418,3.869
				C66.674,213.564,65.069,215.053,63.153,215.053z"/>
		</g>
		<g>
			<g>
				<path d="M89.36,253.617h-1.906c-7.377,0-13.376-5.99-13.376-13.375V125.145c0-7.376,5.999-13.376,13.376-13.376h43.345
					c4.121,0,8.497,2.837,10.176,6.604l4.172,9.353c0.503,1.13,2.274,2.279,3.512,2.279h104.164c7.376,0,13.375,6.004,13.375,13.376
					v25.133c0,2.014-1.637,3.646-3.65,3.646s-3.646-1.633-3.646-3.646V143.38c0-3.354-2.725-6.079-6.078-6.079H148.658
					c-4.121,0-8.497-2.841-10.176-6.608l-4.172-9.348c-0.502-1.13-2.274-2.284-3.512-2.284H87.454c-3.354,0-6.079,2.73-6.079,6.083
					v115.098c0,3.367,2.726,6.084,6.079,6.084h1.906c2.014,0,3.651,1.637,3.651,3.646C93.012,252,91.374,253.617,89.36,253.617z"/>
			</g>
		</g>
		<g>
			<g>
				<path d="M275.923,300.646H110.555c-7.377,0-13.376-6.008-13.376-13.375V172.16c0-7.377,5.999-13.376,13.376-13.376h43.345
					c4.125,0,8.502,2.841,10.181,6.604l4.167,9.353c0.507,1.131,2.274,2.279,3.512,2.279h104.164c7.376,0,13.376,6,13.376,13.367
					v96.885C289.299,294.639,283.299,300.646,275.923,300.646z M110.555,166.076c-3.354,0-6.079,2.73-6.079,6.084v115.111
					c0,3.348,2.726,6.082,6.079,6.082h165.368c3.353,0,6.078-2.734,6.078-6.082v-96.885c0-3.35-2.726-6.066-6.078-6.066H171.759
					c-4.121,0-8.497-2.84-10.176-6.607l-4.167-9.354c-0.508-1.13-2.274-2.283-3.517-2.283H110.555z"/>
			</g>
		</g>
		<g>
			<g>
				<path d="M87.333,283.346h-8.27c-1.344,0-2.432-1.098-2.432-2.438c0-1.338,1.088-2.436,2.432-2.436h8.27
					c1.344,0,2.433,1.098,2.433,2.436C89.766,282.248,88.677,283.346,87.333,283.346z M69.339,283.346H54.754
					c-1.344,0-2.433-1.098-2.433-2.438c0-1.338,1.089-2.436,2.433-2.436h14.585c1.344,0,2.433,1.098,2.433,2.436
					C71.771,282.248,70.683,283.346,69.339,283.346z M45.029,283.346l-14.72-0.018c-1.34-0.076-2.367-1.229-2.288-2.568
					c0.069-1.34,1.158-2.492,2.563-2.287h0.344h14.102c1.344,0,2.433,1.098,2.433,2.436
					C47.462,282.248,46.373,283.346,45.029,283.346z M22.515,278.416c-0.842,0-1.665-0.428-2.111-1.209
					c-1.051-1.842-1.604-3.926-1.604-6.027v-9.543c0-1.34,1.088-2.438,2.433-2.438c1.344,0,2.432,1.098,2.432,2.438v9.543
					c0,1.266,0.331,2.512,0.958,3.609c0.67,1.152,0.266,2.641-0.901,3.311C23.343,278.322,22.924,278.416,22.515,278.416z
					 M21.231,254.344c-1.345,0-2.433-1.098-2.433-2.438v-14.584c0-1.34,1.088-2.438,2.433-2.438c1.344,0,2.432,1.098,2.432,2.438
					v14.584C23.663,253.246,22.575,254.344,21.231,254.344z M21.231,230.029c-1.345,0-2.433-1.08-2.433-2.438v-14.584
					c0-1.34,1.088-2.42,2.433-2.42c1.344,0,2.432,1.08,2.432,2.42v14.584C23.663,228.949,22.575,230.029,21.231,230.029z"/>
			</g>
			<g>
				<path d="M317.408,283.346h-14.576c-1.344,0-2.433-1.098-2.433-2.438c0-1.338,1.089-2.436,2.433-2.436h14.576
					c1.348,0,2.432,1.098,2.432,2.436C319.84,282.248,318.756,283.346,317.408,283.346z M326.23,280.146
					c-0.586,0-1.172-0.205-1.638-0.633c-0.995-0.893-1.064-2.438-0.162-3.441c1.232-1.34,1.906-3.088,1.906-4.893v-7.404
					c0-1.34,1.084-2.438,2.433-2.438c1.34,0,2.433,1.098,2.433,2.438v7.404c0,3.014-1.126,5.934-3.172,8.186
					C327.547,279.885,326.891,280.146,326.23,280.146z M328.77,256.482c-1.349,0-2.433-1.098-2.433-2.438v-14.584
					c0-1.34,1.084-2.418,2.433-2.418c1.34,0,2.433,1.078,2.433,2.418v14.584C331.202,255.385,330.109,256.482,328.77,256.482z
					 M328.77,232.168c-1.349,0-2.433-1.078-2.433-2.436v-6.996c0-1.34,1.084-2.438,2.433-2.438c1.34,0,2.433,1.098,2.433,2.438
					v6.996C331.202,231.09,330.109,232.168,328.77,232.168z"/>
			</g>
		</g>
	</g>
	<g>
		<path d="M195.097,233.48l10.925-23.998c0.009,0,0.022,0.01,0.037,0.01c2.692,0,4.883-2.195,4.883-4.895
			c0-2.688-2.19-4.883-4.883-4.883c-2.707,0-4.893,2.195-4.893,4.883c0,0.996,0.297,1.918,0.809,2.68l-9.659,21.217l-9.428-20.705
			c0.744-0.855,1.195-1.963,1.195-3.191c0-2.688-2.186-4.883-4.883-4.883c-2.702,0-4.889,2.195-4.889,4.883
			c0,2.504,1.87,4.549,4.279,4.848l10.925,24.006c0.805-0.51,1.748-0.809,2.767-0.809
			C193.324,232.643,194.287,232.949,195.097,233.48z"/>
		<path d="M189.516,242.178l-10.925,24.006c-2.409,0.299-4.279,2.354-4.279,4.848c0,2.688,2.187,4.883,4.889,4.883
			c2.697,0,4.883-2.195,4.883-4.883c0-1.229-0.451-2.336-1.195-3.191l9.428-20.705l9.659,21.217
			c-0.512,0.764-0.809,1.684-0.809,2.68c0,2.688,2.186,4.883,4.893,4.883c2.692,0,4.883-2.195,4.883-4.883
			c0-2.697-2.19-4.893-4.883-4.893c-0.015,0-0.028,0.008-0.037,0.008l-10.925-23.998c-0.81,0.531-1.772,0.838-2.814,0.838
			C191.264,242.986,190.32,242.689,189.516,242.178z"/>
		<path d="M187.915,235.033l-23.965-10.893c0-0.018,0-0.027,0-0.047c0-2.688-2.182-4.873-4.879-4.873
			c-2.702,0-4.888,2.186-4.888,4.873c0,2.699,2.186,4.895,4.888,4.895c0.99,0,1.907-0.299,2.679-0.811l21.213,9.664l-20.701,9.424
			c-0.855-0.744-1.972-1.201-3.19-1.201c-2.702,0-4.888,2.195-4.888,4.885c0,2.705,2.186,4.9,4.888,4.9
			c2.493,0,4.544-1.879,4.842-4.287l24.03-10.947c-0.521-0.801-0.832-1.768-0.832-2.801
			C187.111,236.801,187.413,235.842,187.915,235.033z"/>
		<path d="M225.499,246.064c-1.224,0-2.34,0.457-3.195,1.201l-20.701-9.424l21.213-9.664c0.771,0.512,1.688,0.811,2.684,0.811
			c2.697,0,4.883-2.195,4.883-4.895c0-2.688-2.186-4.873-4.883-4.873c-2.702,0-4.884,2.186-4.884,4.873c0,0.02,0,0.029,0,0.047
			l-23.97,10.893c0.507,0.809,0.809,1.768,0.809,2.781c0,1.033-0.307,2-0.832,2.801l24.03,10.947
			c0.298,2.408,2.349,4.287,4.847,4.287c2.697,0,4.883-2.195,4.883-4.9C230.382,248.26,228.196,246.064,225.499,246.064z"/>
	</g>
</g>
</svg>
