<?xml version="1.0" encoding="utf-8"?>
<!-- Generator: Adobe Illustrator 16.0.0, SVG Export Plug-In . SVG Version: 6.00 Build 0)  -->
<!DOCTYPE svg PUBLIC "-//W3C//DTD SVG 1.1//EN" "http://www.w3.org/Graphics/SVG/1.1/DTD/svg11.dtd">
<svg version="1.1" id="share_1_" xmlns="http://www.w3.org/2000/svg" xmlns:xlink="http://www.w3.org/1999/xlink" x="0px" y="0px"
	 width="350px" height="350px" viewBox="-50 -50 450 450" style="fill: white;" enable-background="new 0 0 350 350" xml:space="preserve">
<g id="share">
	<g>
		<g>
			<g>
				<path d="M24.601,180.639c-0.36-0.369-0.276-0.825,0.201-1.026l0.954-0.414c0.469-0.205,1.281-0.373,1.792-0.373h15.255
					c0.511,0,0.963,0.009,0.979,0.025c0.025,0.013-0.251,0.368-0.603,0.741l-9.025,9.281c-0.352,0.368-0.946,0.372-1.307,0.017
					L24.601,180.639z"/>
			</g>
			<g>
				<path d="M23.202,189.702c-0.511,0-0.938-0.418-0.938-0.934v-4.659c0-0.507,0.167-1.318,0.368-1.787l0.411-0.951
					c0.209-0.477,0.669-0.573,1.03-0.209l7.87,7.879c0.369,0.364,0.243,0.661-0.259,0.661H23.202z"/>
			</g>
			<g>
				<path d="M21.469,200.369c-0.017,0.017-0.042,0.017-0.059,0.017c-0.017,0-0.343-0.31-0.711-0.669l-9.227-9.001
					c-0.36-0.352-0.369-0.946-0.008-1.302l8.247-8.252c0.368-0.364,0.82-0.268,1.03,0.209l0.41,0.951
					c0.201,0.469,0.368,1.28,0.368,1.787v15.255C21.52,199.884,21.494,200.353,21.469,200.369z"/>
			</g>
			<g>
				<path d="M10.644,179.764c0-0.515,0.427-0.938,0.938-0.938h4.655c0.519,0,1.323,0.168,1.792,0.373l0.963,0.414
					c0.469,0.201,0.553,0.657,0.201,1.026l-7.887,7.875c-0.352,0.36-0.661,0.23-0.661-0.28V179.764z"/>
			</g>
			<g>
				<path d="M0.981,178.085c-0.511,0-0.955-0.017-0.98-0.029c-0.025-0.008,0.251-0.369,0.611-0.737l9.017-9.281
					c0.352-0.368,0.946-0.377,1.315-0.013l8.247,8.247c0.352,0.364,0.268,0.829-0.201,1.03l-0.963,0.406
					c-0.469,0.206-1.273,0.377-1.792,0.377H0.981z"/>
			</g>
			<g>
				<path d="M11.841,167.871c-0.369-0.36-0.243-0.662,0.268-0.662h8.474c0.511,0,0.938,0.423,0.938,0.938v4.647
					c0,0.519-0.167,1.327-0.368,1.796l-0.41,0.958c-0.21,0.469-0.662,0.561-1.03,0.197L11.841,167.871z"/>
			</g>
			<g>
				<path d="M22.633,174.59c-0.201-0.469-0.368-1.277-0.368-1.796v-15.247c0-0.511,0.009-0.954,0.025-0.979s0.368,0.247,0.745,0.603
					l9.277,9.021c0.36,0.356,0.369,0.95,0.008,1.31l-8.247,8.243c-0.36,0.364-0.82,0.272-1.03-0.197L22.633,174.59z"/>
			</g>
			<g>
				<path d="M27.548,178.085c-0.511,0-1.323-0.171-1.792-0.377l-0.954-0.406c-0.478-0.201-0.561-0.666-0.201-1.03l7.879-7.875
					c0.36-0.36,0.661-0.238,0.661,0.272v8.477c0,0.511-0.427,0.938-0.938,0.938H27.548z"/>
			</g>
		</g>
		<g>
			<path d="M176.14,11.589l-10.952,6.991l10.952,6.987l-10.952,6.992L154.211,25.5l10.969-6.987l-10.969-6.924l10.969-6.991
				L176.14,11.589z M165.121,34.756l10.943-6.992l10.943,6.992l-10.943,6.991L165.121,34.756z M176.14,25.5l10.943-6.987
				l-10.943-6.929l10.893-6.987l10.952,6.991l-10.952,6.991l10.952,6.979l-10.952,6.996L176.14,25.5L176.14,25.5z"/>
		</g>
		<g>
			<path d="M110.807,40.508c-0.017-3.588,1.6-6.292,4.881-8.285c-1.824-2.629-4.604-4.078-8.271-4.367
				c-3.475-0.268-7.26,2.031-8.649,2.031c-1.474,0-4.822-1.926-7.468-1.926c-5.459,0.083-11.245,4.35-11.245,13.015
				c0,2.562,0.46,5.204,1.406,7.938c1.248,3.588,5.761,12.383,10.475,12.237c2.462-0.059,4.211-1.75,7.41-1.75
				c3.098,0,4.714,1.75,7.468,1.75c4.739-0.067,8.834-8.063,10.022-11.663C110.472,46.486,110.807,40.697,110.807,40.508
				L110.807,40.508z M105.272,24.458c2.662-3.161,2.42-6.049,2.336-7.083c-2.345,0.139-5.074,1.6-6.614,3.408
				c-1.725,1.942-2.729,4.333-2.521,7.033C101.027,28.008,103.363,26.697,105.272,24.458z"/>
		</g>
		<g>
			<path d="M240.618,38.959v11.324c0,1.503-1.188,2.705-2.696,2.705c-1.49,0-2.938-1.209-2.938-2.705V38.959
				c0-1.478,1.448-2.688,2.938-2.688C239.396,36.271,240.618,37.481,240.618,38.959z M241.673,54.307
				c0,1.604,1.29,2.897,2.889,2.897h1.942l0.025,5.97c0,3.609,5.4,3.58,5.4,0v-5.97h3.643v5.97c0,3.588,5.417,3.596,5.417,0v-5.97
				h1.984c1.582,0,2.872-1.293,2.872-2.897V36.774h-24.173V54.307z M265.921,35.819h-24.365c0-4.178,2.504-7.816,6.222-9.716
				l-1.867-3.45c-0.276-0.481,0.418-0.779,0.661-0.373l1.892,3.483c3.408-1.515,7.335-1.436,10.584,0l1.893-3.47
				c0.242-0.419,0.929-0.109,0.652,0.373l-1.867,3.437C263.409,28.003,265.921,31.642,265.921,35.819z M249.226,30.394
				c0-0.553-0.444-1.026-1.03-1.026c-0.553,0-0.996,0.473-0.996,1.026c0,0.561,0.452,1.03,0.996,1.03
				C248.781,31.424,249.226,30.955,249.226,30.394z M260.311,30.394c0-0.553-0.451-1.026-0.996-1.026
				c-0.578,0-1.029,0.473-1.029,1.026c0,0.561,0.451,1.03,1.029,1.03C259.859,31.424,260.311,30.955,260.311,30.394z M269.58,36.271
				c-1.475,0-2.696,1.185-2.696,2.688v11.324c0,1.503,1.222,2.705,2.696,2.705c1.498,0,2.938-1.209,2.938-2.705V38.959
				C272.519,37.457,271.07,36.271,269.58,36.271z"/>
		</g>
		<g>
			<path d="M299.722,115.867h-8.163V89.564h8.163V115.867z M295.627,85.968c-2.612,0-4.73-2.156-4.73-4.768
				c0-2.617,2.118-4.731,4.73-4.731s4.73,2.114,4.73,4.731C300.357,83.813,298.239,85.968,295.627,85.968z M330.299,115.867h-8.155
				v-12.81c0-3.048-0.066-6.966-4.262-6.966c-4.236,0-4.89,3.315-4.89,6.749v13.028h-8.154V89.564h7.836v3.583h0.117
				c1.08-2.064,3.743-4.25,7.729-4.25c8.256,0,9.779,5.442,9.779,12.518V115.867L330.299,115.867z"/>
		</g>
		<g>
			<path d="M234.983,295.668l16.151-2.227v15.606h-16.151V295.668z M234.983,324.22l16.151,2.227v-15.405h-16.151V324.22z
				 M252.909,326.681l21.477,2.973v-18.612h-21.477V326.681z M252.909,293.207v15.841h21.477v-18.805L252.909,293.207z"/>
		</g>
		<g>
			<path d="M60.361,78.935H22.826c-1.716,0-3.123,1.419-3.123,3.161v37.464c0,1.742,1.407,3.157,3.123,3.157h37.535
				c1.716,0,3.123-1.415,3.123-3.157V82.096C63.484,80.354,62.077,78.935,60.361,78.935z M32.948,116.462h-6.489V95.567h6.489
				V116.462L32.948,116.462z M29.7,92.721c-2.084,0-3.759-1.691-3.759-3.764s1.675-3.763,3.759-3.763
				c2.068,0,3.768,1.691,3.768,3.763C33.468,91.038,31.776,92.721,29.7,92.721z M57.255,116.462h-6.473v-10.16
				c0-2.424-0.05-5.543-3.374-5.543c-3.383,0-3.902,2.637-3.902,5.367v10.336h-6.489V95.567h6.229v2.851h0.092
				c0.862-1.637,2.973-3.366,6.129-3.366c6.581,0,7.787,4.324,7.787,9.959V116.462z"/>
		</g>
		<g>
			<path d="M98.44,302.492c-5.585,0-10.098,4.513-10.098,10.106c0,5.576,4.513,10.097,10.098,10.097
				c5.593,0,10.105-4.521,10.105-10.097C108.546,307.005,104.033,302.492,98.44,302.492z M98.44,319.162
				c-3.609,0-6.556-2.947-6.556-6.563c0-3.626,2.939-6.573,6.556-6.573c3.617,0,6.572,2.947,6.572,6.573
				C105.013,316.215,102.057,319.162,98.44,319.162z M111.309,302.082c0,1.306-1.055,2.353-2.353,2.353
				c-1.314,0-2.353-1.055-2.353-2.353c0-1.307,1.047-2.361,2.353-2.361C110.254,299.721,111.309,300.775,111.309,302.082z
				 M117.999,304.468c-0.15-3.156-0.862-5.944-3.173-8.247c-2.312-2.311-5.107-3.03-8.265-3.182c-3.24-0.184-13.003-0.184-16.243,0
				c-3.148,0.151-5.953,0.871-8.255,3.165c-2.311,2.311-3.031,5.1-3.182,8.256c-0.184,3.248-0.184,13.003,0,16.26
				c0.142,3.148,0.871,5.944,3.182,8.256c2.302,2.294,5.099,3.014,8.255,3.173c3.24,0.192,13.003,0.192,16.243,0
				c3.157-0.159,5.953-0.871,8.265-3.173c2.294-2.312,3.022-5.107,3.173-8.256C118.184,317.463,118.184,307.726,117.999,304.468
				L117.999,304.468z M113.796,324.203c-0.687,1.725-2.01,3.056-3.734,3.751c-2.604,1.029-8.75,0.787-11.621,0.787
				c-2.855,0-9.018,0.234-11.613-0.787c-1.708-0.687-3.048-2.01-3.743-3.751c-1.021-2.588-0.787-8.741-0.787-11.604
				c0-2.872-0.227-9.035,0.787-11.613c0.687-1.733,2.018-3.057,3.743-3.743c2.596-1.038,8.758-0.804,11.613-0.804
				c2.872,0,9.034-0.218,11.621,0.804c1.717,0.679,3.039,2.01,3.734,3.743c1.038,2.587,0.796,8.741,0.796,11.613
				C114.592,315.462,114.834,321.624,113.796,324.203z"/>
		</g>
		<g>
			<path d="M186.715,331.286l-13.983-24.189h13.773l13.991,24.189H186.715z M174.967,333.313l-6.898,12.09h26.55l6.891-12.09
				H174.967z M170.906,310.128l-13.179,23.185l6.892,12.09l13.371-23.184L170.906,310.128z"/>
		</g>
		<g>
			<path d="M350,178.952c0,11.42-7.828,19.542-19.375,19.542c-11.085,0-20.027-8.942-20.027-20.015
				c0-11.077,8.942-20.023,20.027-20.023c5.384,0,9.931,1.976,13.431,5.237l-5.46,5.242c-7.125-6.874-20.379-1.712-20.379,9.545
				c0,6.987,5.568,12.647,12.408,12.647c7.93,0,10.894-5.689,11.362-8.637h-11.362v-6.886h19.057
				C349.866,176.628,350,177.617,350,178.952L350,178.952z"/>
		</g>
		<g>
			<path d="M326.079,236.917h-30.954c-2.336,0-4.229,1.884-4.229,4.211v30.963c0,2.336,1.893,4.22,4.229,4.22h30.954
				c2.336,0,4.22-1.884,4.22-4.22v-30.963C330.299,238.801,328.415,236.917,326.079,236.917z M303.606,262.16
				c-3.081,0-5.585-2.503-5.585-5.593c0-3.081,2.504-5.584,5.585-5.584c3.098,0,5.593,2.503,5.593,5.584
				C309.199,259.657,306.704,262.16,303.606,262.16z M317.598,262.16c-3.09,0-5.585-2.503-5.585-5.593
				c0-3.081,2.495-5.584,5.585-5.584c3.081,0,5.584,2.503,5.584,5.584C323.182,259.657,320.679,262.16,317.598,262.16z"/>
		</g>
		<g>
			<path d="M61.299,256.249c0-10.885-8.816-19.692-19.701-19.692s-19.701,8.808-19.701,19.692c0,9.83,7.2,17.985,16.62,19.459
				v-13.766h-5.007v-5.693h5.007v-4.337c0-4.939,2.93-7.669,7.435-7.669c2.16,0,4.421,0.385,4.421,0.385v4.848h-2.495
				c-2.437,0-3.207,1.516-3.207,3.073v3.7h5.468l-0.879,5.693H44.67v13.766C54.09,274.234,61.299,266.079,61.299,256.249z"/>
		</g>
	</g>
	<g>
		<path d="M125.534,228.359c-14.602,0-33.817-1.716-42.458-9.921c-6.966-6.615-10.96-15.909-10.96-25.5
			c0-17.679,13.204-32.511,30.494-34.801c6.798-27.408,31.733-47.051,60.201-47.051c22.195,0,42.458,11.739,53.577,30.837
			c3.817-1.386,7.795-2.084,11.864-2.084c19.383,0,35.148,15.766,35.148,35.145c0,1.683-0.134,3.395-0.385,5.116
			c10.056,3.207,17.063,12.572,17.063,23.402c0,13.563-11.035,24.591-24.6,24.591H134.896
			C134.971,228.092,131.152,228.359,125.534,228.359z M162.811,117.655c-26.182,0-49.031,18.58-54.314,44.183
			c-0.293,1.453-1.532,2.521-3.015,2.612c-15.029,0.925-26.793,13.438-26.793,28.488c0,7.8,3.249,15.352,8.909,20.744
			c5.434,5.157,19.257,8.104,37.937,8.104c5.367,0,9.093-0.251,9.127-0.251l120.818-0.017c9.938,0,18.026-8.08,18.026-18.019
			c0-8.767-6.254-16.223-14.878-17.733c-0.896-0.155-1.683-0.674-2.186-1.437c-0.493-0.758-0.653-1.69-0.443-2.57
			c0.553-2.286,0.837-4.567,0.837-6.778c0-15.758-12.827-28.576-28.584-28.576c-4.137,0-8.155,0.892-11.948,2.646
			c-1.583,0.737-3.483,0.092-4.296-1.465C202.404,129.125,183.549,117.655,162.811,117.655z"/>
	</g>
	<g>
		<path d="M176.407,106.427c-0.963,0-1.75-0.787-1.75-1.754v-8.753c0-0.967,0.787-1.75,1.75-1.75c0.972,0,1.759,0.783,1.759,1.75
			v8.753C178.166,105.64,177.379,106.427,176.407,106.427z M176.407,88.916c-0.963,0-1.75-0.787-1.75-1.754v-8.753
			c0-0.967,0.787-1.75,1.75-1.75c0.972,0,1.759,0.783,1.759,1.75v8.753C178.166,88.128,177.379,88.916,176.407,88.916z
			 M176.407,71.399c-0.963,0-1.75-0.783-1.75-1.75v-8.753c0-0.967,0.787-1.754,1.75-1.754c0.972,0,1.759,0.787,1.759,1.754v8.753
			C178.166,70.617,177.379,71.399,176.407,71.399z M176.407,53.704c-0.963,0-1.75-0.599-1.75-1.565v-0.373
			c0-0.967,0.787-1.754,1.75-1.754c0.972,0,1.759,0.787,1.759,1.754C178.166,52.729,177.379,53.704,176.407,53.704z"/>
	</g>
	<g>
		<path d="M135.515,109.743c-0.603,0-1.197-0.314-1.523-0.875l-4.379-7.582c-0.478-0.841-0.192-1.909,0.645-2.395
			c0.837-0.481,1.909-0.197,2.395,0.641l4.379,7.582c0.478,0.837,0.192,1.909-0.645,2.395
			C136.109,109.667,135.808,109.743,135.515,109.743z M126.757,94.575c-0.603,0-1.197-0.313-1.523-0.875l-4.371-7.581
			c-0.485-0.842-0.2-1.909,0.637-2.395c0.846-0.481,1.909-0.197,2.395,0.64l4.379,7.586c0.485,0.837,0.192,1.909-0.645,2.39
			C127.352,94.5,127.05,94.575,126.757,94.575z M117.999,79.408c-0.603,0-1.197-0.314-1.516-0.875l-4.379-7.582
			c-0.485-0.837-0.201-1.909,0.637-2.39c0.837-0.486,1.909-0.197,2.395,0.636l4.379,7.586c0.485,0.837,0.2,1.909-0.637,2.391
			C118.594,79.333,118.301,79.408,117.999,79.408z"/>
	</g>
	<g>
		<path d="M103.162,138.29c-0.301,0-0.594-0.075-0.879-0.234l-7.586-4.379c-0.837-0.486-1.122-1.553-0.636-2.395
			c0.485-0.837,1.557-1.122,2.395-0.636l7.585,4.375c0.837,0.486,1.123,1.557,0.636,2.395
			C104.352,137.976,103.766,138.29,103.162,138.29z M87.999,129.532c-0.301,0-0.603-0.075-0.879-0.234l-7.586-4.379
			c-0.837-0.481-1.122-1.553-0.636-2.391c0.485-0.837,1.557-1.126,2.395-0.64l7.577,4.379c0.846,0.481,1.13,1.553,0.645,2.39
			C89.188,129.218,88.603,129.532,87.999,129.532z M72.828,120.778c-0.302,0-0.595-0.075-0.879-0.238l-6.456-3.73
			c-0.837-0.481-1.13-1.554-0.645-2.391c0.485-0.837,1.565-1.122,2.395-0.641l6.464,3.73c0.837,0.486,1.122,1.558,0.636,2.395
			C74.025,120.464,73.431,120.778,72.828,120.778z"/>
	</g>
	<g>
		<path d="M69.152,180.581h-4.371c-0.971,0-1.758-0.787-1.758-1.754c0-0.963,0.787-1.75,1.758-1.75h4.371
			c0.971,0,1.758,0.787,1.758,1.75C70.911,179.793,70.124,180.581,69.152,180.581z M56.023,180.581h-4.379
			c-0.971,0-1.758-0.787-1.758-1.754c0-0.963,0.787-1.75,1.758-1.75h4.379c0.963,0,1.75,0.787,1.75,1.75
			C57.773,179.793,56.986,180.581,56.023,180.581z"/>
	</g>
	<g>
		<path d="M67.98,243.18c-0.603,0-1.189-0.31-1.515-0.879c-0.486-0.838-0.201-1.909,0.636-2.387l7.586-4.379
			c0.837-0.485,1.909-0.201,2.395,0.637c0.486,0.837,0.201,1.908-0.636,2.395l-7.585,4.379
			C68.574,243.104,68.281,243.18,67.98,243.18z M83.143,234.422c-0.603,0-1.189-0.31-1.515-0.88
			c-0.486-0.837-0.201-1.908,0.645-2.386l7.577-4.379c0.837-0.485,1.909-0.201,2.395,0.636c0.486,0.838,0.201,1.909-0.636,2.396
			l-7.585,4.379C83.746,234.347,83.444,234.422,83.143,234.422z"/>
	</g>
	<g>
		<path d="M113.863,288.92c-0.302,0-0.604-0.075-0.88-0.234c-0.837-0.485-1.122-1.558-0.645-2.395l4.379-7.586
			c0.485-0.837,1.558-1.122,2.395-0.636c0.838,0.485,1.131,1.557,0.646,2.395l-4.379,7.585
			C115.052,288.602,114.466,288.92,113.863,288.92z M122.612,273.748c-0.293,0-0.595-0.066-0.87-0.234
			c-0.838-0.485-1.131-1.557-0.646-2.395l4.379-7.577c0.485-0.846,1.558-1.13,2.395-0.645c0.838,0.485,1.122,1.558,0.646,2.395
			l-4.379,7.586C123.81,273.438,123.215,273.748,122.612,273.748z M131.37,258.585c-0.302,0-0.595-0.075-0.87-0.234
			c-0.846-0.477-1.131-1.549-0.646-2.386l4.38-7.586c0.485-0.837,1.557-1.122,2.395-0.645c0.837,0.485,1.121,1.558,0.636,2.395
			l-4.379,7.586C132.567,258.275,131.973,258.585,131.37,258.585z M140.128,243.423c-0.301,0-0.595-0.076-0.879-0.235
			c-0.837-0.485-1.122-1.557-0.636-2.395l4.379-7.585c0.485-0.838,1.549-1.122,2.395-0.637c0.837,0.485,1.121,1.558,0.636,2.395
			l-4.379,7.586C141.317,243.104,140.73,243.423,140.128,243.423z"/>
	</g>
	<g>
		<path d="M176.407,299.06c-0.963,0-1.75-0.779-1.75-1.75v-8.758c0-0.963,0.787-1.75,1.75-1.75c0.972,0,1.759,0.787,1.759,1.75
			v8.758C178.166,298.28,177.379,299.06,176.407,299.06z M176.407,281.552c-0.963,0-1.75-0.787-1.75-1.758v-8.758
			c0-0.955,0.787-1.742,1.75-1.742c0.972,0,1.759,0.787,1.759,1.742v8.758C178.166,280.765,177.379,281.552,176.407,281.552z
			 M176.407,264.036c-0.963,0-1.75-0.787-1.75-1.75v-8.758c0-0.963,0.787-1.75,1.75-1.75c0.972,0,1.759,0.787,1.759,1.75v8.758
			C178.166,263.249,177.379,264.036,176.407,264.036z M176.407,246.521c-0.963,0-1.75-0.787-1.75-1.742v-8.758
			c0-0.971,0.787-1.758,1.75-1.758c0.972,0,1.759,0.787,1.759,1.758v8.758C178.166,245.733,177.379,246.521,176.407,246.521z"/>
	</g>
	<g>
		<path d="M239.613,290.05c-0.603,0-1.188-0.31-1.516-0.87l-4.379-7.586c-0.485-0.837-0.201-1.909,0.637-2.386
			c0.846-0.486,1.909-0.201,2.395,0.636l4.379,7.586c0.485,0.837,0.201,1.909-0.637,2.386
			C240.217,289.975,239.915,290.05,239.613,290.05z M230.855,274.888c-0.603,0-1.189-0.318-1.516-0.871l-4.379-7.586
			c-0.485-0.837-0.192-1.909,0.645-2.395c0.829-0.485,1.9-0.201,2.395,0.637l4.379,7.585c0.478,0.838,0.193,1.909-0.645,2.395
			C231.458,274.812,231.157,274.888,230.855,274.888z M222.098,259.716c-0.603,0-1.189-0.31-1.516-0.871l-4.379-7.586
			c-0.478-0.837-0.192-1.908,0.645-2.386c0.829-0.478,1.909-0.201,2.395,0.636l4.379,7.578c0.478,0.846,0.193,1.908-0.645,2.395
			C222.7,259.648,222.398,259.716,222.098,259.716z M213.348,244.553c-0.603,0-1.197-0.31-1.523-0.879l-4.371-7.577
			c-0.485-0.838-0.2-1.909,0.637-2.387c0.846-0.485,1.909-0.201,2.395,0.637l4.379,7.577c0.486,0.846,0.193,1.909-0.645,2.395
			C213.942,244.478,213.641,244.553,213.348,244.553z"/>
	</g>
	<g>
		<path d="M286.451,244.108c-0.302,0-0.604-0.075-0.88-0.234l-3.224-1.858c-0.837-0.485-1.121-1.558-0.636-2.395
			s1.558-1.122,2.395-0.637l3.215,1.859c0.837,0.485,1.131,1.558,0.645,2.395C287.64,243.791,287.054,244.108,286.451,244.108z
			 M275.65,237.871c-0.302,0-0.604-0.075-0.88-0.234l-7.585-4.379c-0.838-0.485-1.123-1.558-0.637-2.395
			c0.485-0.837,1.557-1.122,2.395-0.637l7.577,4.379c0.837,0.478,1.13,1.55,0.645,2.387
			C276.839,237.562,276.253,237.871,275.65,237.871z"/>
	</g>
	<g>
		<path d="M300.65,180.581h-8.758c-0.963,0-1.75-0.787-1.75-1.754c0-0.963,0.787-1.75,1.75-1.75h8.758c0.963,0,1.75,0.787,1.75,1.75
			C302.4,179.793,301.613,180.581,300.65,180.581z M283.135,180.581h-8.749c-0.972,0-1.759-0.787-1.759-1.754
			c0-0.963,0.787-1.75,1.759-1.75h8.749c0.972,0,1.759,0.787,1.759,1.75C284.894,179.793,284.106,180.581,283.135,180.581z"/>
	</g>
	<g>
		<path d="M248.924,138.712c-0.603,0-1.188-0.314-1.516-0.875c-0.485-0.837-0.201-1.909,0.645-2.39l7.578-4.379
			c0.837-0.481,1.908-0.201,2.395,0.636c0.485,0.841,0.201,1.909-0.637,2.395l-7.586,4.379
			C249.527,138.637,249.226,138.712,248.924,138.712z M264.087,129.955c-0.603,0-1.188-0.314-1.516-0.875
			c-0.485-0.837-0.192-1.909,0.646-2.39l7.585-4.379c0.837-0.481,1.901-0.197,2.395,0.641c0.478,0.837,0.192,1.909-0.645,2.391
			l-7.586,4.379C264.689,129.879,264.389,129.955,264.087,129.955z M279.259,121.201c-0.603,0-1.197-0.314-1.524-0.875
			c-0.477-0.837-0.192-1.909,0.645-2.395l7.185-4.148c0.837-0.481,1.917-0.197,2.395,0.64c0.485,0.837,0.2,1.909-0.637,2.391
			l-7.192,4.153C279.854,121.125,279.552,121.201,279.259,121.201z"/>
	</g>
	<g>
		<path d="M210.301,121.883c-0.302,0-0.604-0.076-0.88-0.239c-0.837-0.481-1.122-1.553-0.645-2.391l4.379-7.581
			c0.485-0.837,1.558-1.122,2.395-0.641c0.838,0.485,1.122,1.553,0.646,2.395l-4.379,7.582
			C211.489,121.569,210.903,121.883,210.301,121.883z M219.05,106.716c-0.293,0-0.595-0.075-0.87-0.238
			c-0.838-0.481-1.131-1.553-0.646-2.391l4.379-7.582c0.485-0.837,1.558-1.122,2.396-0.641c0.837,0.486,1.121,1.553,0.645,2.395
			l-4.379,7.582C220.247,106.402,219.652,106.716,219.05,106.716z M227.808,91.549c-0.302,0-0.595-0.076-0.879-0.234
			c-0.837-0.481-1.122-1.553-0.637-2.391l4.38-7.586c0.477-0.837,1.557-1.122,2.395-0.641c0.837,0.486,1.121,1.554,0.636,2.395
			l-4.379,7.582C229.005,91.235,228.41,91.549,227.808,91.549z M236.565,76.381c-0.301,0-0.603-0.075-0.879-0.23
			c-0.837-0.486-1.122-1.558-0.636-2.395l3.365-5.836c0.486-0.846,1.549-1.122,2.395-0.645c0.838,0.486,1.122,1.558,0.645,2.391
			l-3.374,5.84C237.755,76.067,237.169,76.381,236.565,76.381z"/>
	</g>
	<g>
		<g>
			<path d="M178.66,174.494l10.039-22.063c0.016,0,0.033,0,0.05,0c2.486,0,4.471-2.014,4.471-4.483c0-2.491-1.984-4.497-4.471-4.497
				c-2.495,0-4.496,2.006-4.496,4.497c0,0.904,0.276,1.75,0.745,2.466l-8.884,19.496l-8.674-19.031
				c0.678-0.787,1.097-1.809,1.097-2.93c0-2.491-2.001-4.497-4.471-4.497c-2.496,0-4.505,2.006-4.505,4.497
				c0,2.29,1.708,4.178,3.935,4.45l10.039,22.063c0.729-0.465,1.625-0.737,2.546-0.737
				C177.035,173.723,177.923,174.012,178.66,174.494z"/>
		</g>
		<g>
			<path d="M173.535,182.498l-10.039,22.058c-2.227,0.276-3.935,2.16-3.935,4.455c0,2.486,2.009,4.487,4.505,4.487
				c2.47,0,4.471-2.001,4.471-4.487c0-1.122-0.419-2.152-1.097-2.931l8.674-19.036l8.884,19.496
				c-0.469,0.721-0.745,1.566-0.745,2.471c0,2.486,2.001,4.487,4.496,4.487c2.486,0,4.471-2.001,4.471-4.487
				c0-2.479-1.984-4.488-4.471-4.488c-0.017,0-0.034,0-0.05,0l-10.039-22.058c-0.737,0.477-1.625,0.766-2.579,0.766
				C175.16,183.23,174.264,182.958,173.535,182.498z"/>
		</g>
		<g>
			<path d="M172.078,175.93l-22.028-10.022c0-0.017,0-0.033,0-0.033c0-2.487-2.026-4.497-4.513-4.497
				c-2.462,0-4.479,2.009-4.479,4.497c0,2.47,2.018,4.479,4.479,4.479c0.921,0,1.775-0.272,2.461-0.728l19.509,8.871l-19.031,8.666
				c-0.778-0.682-1.8-1.101-2.938-1.101c-2.462,0-4.479,2.01-4.479,4.5c0,2.47,2.018,4.488,4.479,4.488
				c2.311,0,4.178-1.708,4.454-3.931l22.087-10.056c-0.477-0.753-0.753-1.637-0.753-2.587
				C171.325,177.537,171.602,176.666,172.078,175.93z"/>
		</g>
		<g>
			<path d="M206.625,186.061c-1.131,0-2.152,0.419-2.939,1.101l-19.022-8.666l19.5-8.871c0.687,0.456,1.54,0.728,2.462,0.728
				c2.461,0,4.479-2.009,4.479-4.479c0-2.487-2.019-4.497-4.479-4.497c-2.487,0-4.514,2.009-4.514,4.497c0,0,0,0.017,0,0.033
				l-22.028,10.022c0.478,0.736,0.754,1.607,0.754,2.545c0,0.95-0.276,1.834-0.754,2.587l22.087,10.056
				c0.285,2.223,2.152,3.931,4.455,3.931c2.461,0,4.479-2.019,4.479-4.488C211.104,188.07,209.086,186.061,206.625,186.061z"/>
		</g>
	</g>
</g>
</svg>
