<?xml version="1.0" encoding="utf-8"?>
<!-- Generator: Adobe Illustrator 16.0.0, SVG Export Plug-In . SVG Version: 6.00 Build 0)  -->
<!DOCTYPE svg PUBLIC "-//W3C//DTD SVG 1.1//EN" "http://www.w3.org/Graphics/SVG/1.1/DTD/svg11.dtd">
<svg version="1.1" id="use_1_" xmlns="http://www.w3.org/2000/svg" xmlns:xlink="http://www.w3.org/1999/xlink" x="0px" y="0px"
	 width="350px" height="350px" viewBox="-50 -50 450 450" style="fill: white;" enable-background="new 0 0 350 350" xml:space="preserve">
<g id="use">
	<g>
		<g>
			<g>
				<g>
					<path d="M251.465,131.805c-0.584,0-1.184-0.141-1.742-0.451c-9.545-5.33-21.396-5.869-31.658-1.149
						c-1.723,0.795-3.791,0.097-4.684-1.6c-11.773-22.546-34.787-36.546-60.057-36.546c-10.889,0-21.715,2.652-31.296,7.654
						c-1.776,0.928-3.942,0.239-4.853-1.52c-0.919-1.759-0.238-3.924,1.521-4.852c10.606-5.533,22.582-8.467,34.628-8.467
						c26.859,0,51.412,14.292,64.846,37.51c11.5-4.26,24.482-3.2,35.053,2.687c1.732,0.963,2.352,3.155,1.396,4.896
						C253.957,131.142,252.729,131.805,251.465,131.805z"/>
				</g>
			</g>
			<g>
				<g>
					<path d="M108.152,226.422c-14.901,0-40.436-1.607-51.324-11.949c-8.369-7.936-13.169-19.107-13.169-30.637
						c0-21.363,16.015-39.269,36.927-41.903c0.433-1.768,0.928-3.509,1.476-5.232c0.618-1.882,2.625-2.917,4.534-2.315
						c1.883,0.619,2.916,2.643,2.307,4.534c-0.751,2.307-1.379,4.693-1.865,7.07c-0.326,1.591-1.679,2.767-3.305,2.864
						c-18.438,1.131-32.888,16.492-32.888,34.982c0,9.566,3.986,18.83,10.933,25.422c10.995,10.447,45.182,10.518,57.414,9.652
						h146.547c12.285,0,22.291-10.006,22.291-22.291c0-10.822-7.725-20.022-18.375-21.878c-1.963-0.345-3.271-2.209-2.936-4.163
						c0.354-1.953,2.201-3.208,4.172-2.917c14.088,2.466,24.324,14.636,24.324,28.958c0,16.246-13.223,29.467-29.477,29.467H119.447
						C118.943,226.122,114.516,226.422,108.152,226.422z"/>
				</g>
			</g>
			<g>
				<g>
					<g>
						<path d="M169.18,156.667l12.197-26.771c0.018,0,0.035,0,0.053,0c3.014,0,5.418-2.475,5.418-5.445
							c0-3.049-2.404-5.462-5.418-5.462c-3.049,0-5.453,2.413-5.453,5.462c0,1.087,0.318,2.122,0.902,2.97l-10.793,23.669
							l-10.516-23.085c0.839-0.955,1.316-2.201,1.316-3.553c0-3.049-2.396-5.462-5.427-5.462c-3.005,0-5.453,2.413-5.453,5.462
							c0,2.758,2.06,5.047,4.764,5.392l12.196,26.78c0.875-0.592,1.971-0.902,3.076-0.902
							C167.209,155.721,168.305,156.057,169.18,156.667z"/>
					</g>
				</g>
				<g>
					<g>
						<path d="M162.967,166.362l-12.196,26.792c-2.704,0.301-4.764,2.6-4.764,5.357c0,3.057,2.448,5.461,5.453,5.461
							c3.031,0,5.427-2.404,5.427-5.461c0-1.344-0.478-2.6-1.316-3.553l10.516-23.064l10.793,23.646
							c-0.584,0.867-0.902,1.893-0.902,2.971c0,3.057,2.404,5.461,5.453,5.461c3.014,0,5.418-2.404,5.418-5.461
							c0-2.971-2.404-5.428-5.418-5.428c-0.018,0-0.035,0-0.053,0L169.18,166.31c-0.875,0.592-1.971,0.928-3.137,0.928
							C164.938,167.237,163.842,166.928,162.967,166.362z"/>
					</g>
				</g>
				<g>
					<g>
						<path d="M161.182,158.373l-26.727-12.152c0-0.018,0-0.018,0-0.018c0-3.04-2.439-5.488-5.48-5.488
							c-2.96,0-5.436,2.448-5.436,5.488c0,2.988,2.476,5.436,5.436,5.436c1.149,0,2.157-0.344,3.006-0.91l23.678,10.765
							l-23.112,10.509c-0.946-0.795-2.157-1.308-3.571-1.308c-2.96,0-5.436,2.448-5.436,5.461c0,2.979,2.476,5.428,5.436,5.428
							c2.838,0,5.074-2.051,5.428-4.764l26.779-12.207c-0.566-0.91-0.92-1.953-0.92-3.137
							C160.262,160.326,160.615,159.292,161.182,158.373z"/>
					</g>
				</g>
				<g>
					<g>
						<path d="M203.119,170.693c-1.369,0-2.607,0.513-3.57,1.308l-23.094-10.509l23.66-10.765c0.855,0.566,1.881,0.91,3.004,0.91
							c2.961,0,5.436-2.448,5.436-5.436c0-3.04-2.475-5.488-5.436-5.488c-3.023,0-5.471,2.448-5.471,5.488c0,0,0.008,0,0.008,0.018
							l-26.744,12.152c0.566,0.919,0.902,1.954,0.902,3.103c0,1.184-0.336,2.227-0.902,3.137l26.789,12.207
							c0.354,2.713,2.617,4.764,5.418,4.764c2.961,0,5.436-2.449,5.436-5.428C208.555,173.142,206.08,170.693,203.119,170.693z"/>
					</g>
				</g>
			</g>
		</g>
		<g>
			<g>
				<g>
					<path d="M231.092,350H97.988c-3.977,0-7.221-3.219-7.221-7.195v-87.781c0-3.977,3.244-7.213,7.221-7.213h3.862
						c1.325,0,2.396,1.078,2.396,2.404s-1.07,2.387-2.396,2.387h-3.862c-1.316,0-2.422,1.113-2.422,2.422v87.781
						c0,1.326,1.078,2.404,2.422,2.404h133.104c1.344,0,2.432-1.078,2.432-2.404v-87.781c0-1.309-1.113-2.422-2.432-2.422h-3.861
						c-1.316,0-2.396-1.061-2.396-2.387s1.08-2.404,2.396-2.404h3.861c3.979,0,7.221,3.236,7.221,7.213v87.781
						C238.313,346.782,235.07,350,231.092,350z"/>
				</g>
			</g>
			<g>
				<g>
					<path d="M164.541,347.79c-1.326,0-2.396-1.061-2.396-2.387c0-3.799-2.482-6.787-5.639-6.787h-54.655
						c-1.325,0-2.396-1.078-2.396-2.404v-95.982c0-1.326,1.07-2.387,2.396-2.387h54.655c5.754,0,10.42,5.355,10.42,11.949v95.611
						C166.926,346.729,165.865,347.79,164.541,347.79z M104.246,333.825h52.26c2.096,0,4.021,0.637,5.639,1.77v-85.803
						c0-3.889-2.58-7.158-5.639-7.158h-52.26V333.825z"/>
				</g>
			</g>
			<g>
				<g>
					<path d="M164.541,347.79c-1.326,0-2.396-1.061-2.396-2.387v-95.611c0-6.594,4.676-11.949,10.43-11.949h54.656
						c1.326,0,2.395,1.061,2.395,2.387v95.982c0,1.326-1.068,2.404-2.395,2.404h-54.656c-3.164,0-5.648,2.988-5.648,6.787
						C166.926,346.729,165.865,347.79,164.541,347.79z M172.574,242.633c-3.059,0-5.648,3.27-5.648,7.158v85.82
						c1.627-1.15,3.555-1.787,5.648-1.787h52.26v-91.191H172.574z"/>
				</g>
			</g>
			<g>
				<g>
					<g>
						<path d="M154.518,284.278h-42.653c-1.317,0-2.396-1.078-2.396-2.404V252.69c0-1.326,1.078-2.387,2.396-2.387h42.653
							c1.317,0,2.396,1.061,2.396,2.387v29.184C156.913,283.2,155.835,284.278,154.518,284.278z M114.26,279.489h37.863v-24.395
							H114.26V279.489z"/>
					</g>
				</g>
				<g>
					<g>
						<g>
							<path d="M120.588,284.278c-0.539,0-1.078-0.176-1.538-0.564c-1.007-0.832-1.14-2.352-0.3-3.359l9.889-11.879
								c0.84-1.008,2.352-1.148,3.368-0.301c1.017,0.832,1.149,2.352,0.3,3.377l-9.881,11.861
								C121.949,283.977,121.277,284.278,120.588,284.278z"/>
						</g>
					</g>
					<g>
						<g>
							<path d="M140.359,284.278c-0.689,0-1.371-0.301-1.839-0.865l-9.882-11.861c-0.848-1.025-0.715-2.545,0.301-3.377
								c1.017-0.848,2.528-0.707,3.367,0.301l9.891,11.879c0.84,1.008,0.707,2.527-0.309,3.359
								C141.438,284.102,140.898,284.278,140.359,284.278z"/>
						</g>
					</g>
				</g>
				<g>
					<g>
						<g>
							<path d="M135.41,278.338c-0.549,0-1.088-0.176-1.539-0.547c-1.016-0.85-1.148-2.369-0.317-3.377l8.997-10.818
								c0.857-1.025,2.369-1.148,3.377-0.318c1.024,0.85,1.157,2.369,0.317,3.377l-8.997,10.818
								C136.771,278.038,136.09,278.338,135.41,278.338z"/>
						</g>
					</g>
					<g>
						<g>
							<path d="M154.527,279.7c-0.689,0-1.371-0.301-1.848-0.865l-10.129-12.162c-0.84-1.025-0.698-2.545,0.31-3.395
								c1.017-0.83,2.536-0.689,3.385,0.318l10.129,12.162c0.831,1.025,0.698,2.527-0.31,3.377
								C155.605,279.506,155.066,279.7,154.527,279.7z"/>
						</g>
					</g>
				</g>
				<g>
					<g>
						<path d="M124.256,262.465c0,1.592-1.309,2.898-2.917,2.898c-1.6,0-2.917-1.307-2.917-2.898c0-1.609,1.317-2.916,2.917-2.916
							C122.947,259.549,124.256,260.856,124.256,262.465z"/>
					</g>
				</g>
			</g>
			<g>
				<g>
					<g>
						<path d="M154.518,325.676h-42.653c-1.317,0-2.396-1.078-2.396-2.404v-29.184c0-1.326,1.078-2.404,2.396-2.404h42.653
							c1.317,0,2.396,1.078,2.396,2.404v29.184C156.913,324.598,155.835,325.676,154.518,325.676z M114.26,320.87h37.863v-24.395
							H114.26V320.87z"/>
					</g>
				</g>
				<g>
					<g>
						<g>
							<path d="M120.588,325.676c-0.539,0-1.078-0.193-1.529-0.564c-1.016-0.85-1.148-2.352-0.309-3.377l9.881-11.861
								c0.857-1.025,2.359-1.148,3.367-0.318c1.025,0.85,1.158,2.352,0.318,3.377l-9.881,11.879
								C121.949,325.375,121.277,325.676,120.588,325.676z"/>
						</g>
					</g>
					<g>
						<g>
							<path d="M139.891,325.129c-0.689,0-1.361-0.301-1.838-0.867l-9.422-11.33c-0.84-1.025-0.707-2.527,0.318-3.377
								c1.007-0.83,2.51-0.707,3.367,0.318l9.422,11.332c0.839,1.006,0.707,2.527-0.311,3.375
								C140.986,324.952,140.438,325.129,139.891,325.129z"/>
						</g>
					</g>
				</g>
				<g>
					<g>
						<g>
							<path d="M135.41,319.719c-0.549,0-1.088-0.176-1.539-0.547c-1.016-0.85-1.148-2.352-0.317-3.377l8.997-10.801
								c0.857-1.025,2.369-1.148,3.385-0.318c1.017,0.85,1.149,2.369,0.31,3.377l-8.997,10.818
								C136.771,319.436,136.09,319.719,135.41,319.719z"/>
						</g>
					</g>
					<g>
						<g>
							<path d="M154.527,321.081c-0.689,0-1.371-0.301-1.839-0.865l-10.129-12.162c-0.849-1.008-0.707-2.527,0.301-3.359
								c1.017-0.848,2.536-0.725,3.376,0.301l10.129,12.162c0.84,1.008,0.707,2.527-0.301,3.377
								C155.605,320.905,155.066,321.081,154.527,321.081z"/>
						</g>
					</g>
				</g>
				<g>
					<g>
						<path d="M124.256,303.846c0,1.609-1.309,2.916-2.917,2.916c-1.6,0-2.917-1.307-2.917-2.916s1.317-2.916,2.917-2.916
							C122.947,300.93,124.256,302.237,124.256,303.846z"/>
					</g>
				</g>
			</g>
			<g>
				<g>
					<path d="M217.199,284.26h-42.637c-1.326,0-2.404-1.061-2.404-2.387V252.69c0-1.326,1.078-2.404,2.404-2.404h42.637
						c1.324,0,2.395,1.078,2.395,2.404v29.184C219.594,283.2,218.523,284.26,217.199,284.26z M176.957,279.471h37.846v-24.395
						h-37.846V279.471z"/>
				</g>
			</g>
			<g>
				<g>
					<g>
						<path d="M183.268,284.26c-0.539,0-1.078-0.176-1.527-0.547c-1.018-0.85-1.15-2.352-0.311-3.377l9.881-11.879
							c0.857-1.008,2.369-1.148,3.377-0.301c1.016,0.85,1.158,2.352,0.318,3.377l-9.891,11.861
							C184.639,283.977,183.957,284.26,183.268,284.26z"/>
					</g>
				</g>
				<g>
					<g>
						<path d="M203.049,284.26c-0.682,0-1.371-0.283-1.838-0.848l-9.891-11.879c-0.848-1.025-0.717-2.527,0.301-3.377
							c1.008-0.848,2.527-0.707,3.375,0.301l9.891,11.879c0.85,1.025,0.707,2.527-0.301,3.377
							C204.135,284.084,203.596,284.26,203.049,284.26z"/>
					</g>
				</g>
			</g>
			<g>
				<g>
					<g>
						<path d="M198.1,278.321c-0.539,0-1.088-0.176-1.539-0.547c-1.016-0.85-1.148-2.369-0.299-3.377l8.979-10.801
							c0.857-1.025,2.369-1.148,3.367-0.318c1.025,0.85,1.158,2.352,0.318,3.377l-8.988,10.801
							C199.469,278.02,198.789,278.321,198.1,278.321z"/>
					</g>
				</g>
				<g>
					<g>
						<path d="M217.207,279.682c-0.689,0-1.369-0.301-1.838-0.865l-10.129-12.162c-0.848-1.025-0.707-2.527,0.309-3.377
							c1.018-0.848,2.529-0.707,3.369,0.301l10.127,12.162c0.85,1.025,0.707,2.545-0.299,3.377
							C218.295,279.489,217.756,279.682,217.207,279.682z"/>
					</g>
				</g>
			</g>
			<g>
				<g>
					<path d="M186.936,262.448c0,1.609-1.299,2.898-2.916,2.898c-1.607,0-2.898-1.289-2.898-2.898s1.291-2.916,2.898-2.916
						C185.637,259.532,186.936,260.838,186.936,262.448z"/>
				</g>
			</g>
			<g>
				<g>
					<path d="M217.199,325.659h-42.637c-1.326,0-2.404-1.078-2.404-2.387v-29.201c0-1.326,1.078-2.404,2.404-2.404h42.637
						c1.324,0,2.395,1.078,2.395,2.404v29.201C219.594,324.581,218.523,325.659,217.199,325.659z M176.957,320.87h37.846v-24.412
						h-37.846V320.87z"/>
				</g>
			</g>
			<g>
				<g>
					<g>
						<path d="M183.268,325.659c-0.539,0-1.078-0.176-1.527-0.547c-1.018-0.85-1.15-2.369-0.311-3.377l9.881-11.879
							c0.857-1.025,2.369-1.148,3.377-0.318c1.016,0.85,1.158,2.369,0.318,3.395l-9.891,11.861
							C184.639,325.375,183.957,325.659,183.268,325.659z"/>
					</g>
				</g>
				<g>
					<g>
						<path d="M202.59,325.112c-0.682,0-1.371-0.301-1.84-0.867l-9.43-11.313c-0.848-1.025-0.717-2.527,0.301-3.377
							c1.008-0.848,2.527-0.725,3.375,0.301l9.432,11.313c0.848,1.025,0.715,2.529-0.301,3.377
							C203.676,324.934,203.129,325.112,202.59,325.112z"/>
					</g>
				</g>
			</g>
			<g>
				<g>
					<g>
						<path d="M198.1,319.719c-0.539,0-1.088-0.176-1.539-0.547c-1.016-0.85-1.148-2.369-0.299-3.377l8.979-10.818
							c0.857-1.008,2.369-1.131,3.367-0.318c1.025,0.867,1.158,2.369,0.318,3.377l-8.988,10.818
							C199.469,319.418,198.789,319.719,198.1,319.719z"/>
					</g>
				</g>
				<g>
					<g>
						<path d="M217.207,321.063c-0.68,0-1.369-0.301-1.838-0.865l-10.129-12.145c-0.848-1.025-0.707-2.527,0.309-3.377
							c1.008-0.848,2.52-0.707,3.369,0.301l10.127,12.162c0.85,1.025,0.707,2.527-0.299,3.357
							C218.295,320.887,217.756,321.063,217.207,321.063z"/>
					</g>
				</g>
			</g>
			<g>
				<g>
					<path d="M186.936,303.846c0,1.592-1.299,2.898-2.916,2.898c-1.6,0-2.898-1.307-2.898-2.898c0-1.609,1.299-2.916,2.898-2.916
						C185.637,300.93,186.936,302.237,186.936,303.846z"/>
				</g>
			</g>
		</g>
		<g>
			<g>
				<g>
					<path d="M307.014,96.902h-69.072c-10.129,0-18.365-8.237-18.365-18.366v-67.48c0-1.326,1.061-2.396,2.395-2.396h101.004
						c1.326,0,2.404,1.069,2.404,2.396v67.48C325.379,88.665,317.143,96.902,307.014,96.902z M224.367,13.452v65.085
						c0,7.477,6.08,13.576,13.574,13.576h69.072c7.477,0,13.574-6.099,13.574-13.576V13.452H224.367z"/>
				</g>
			</g>
			<g>
				<g>
					<path d="M333.758,13.452H211.984c-1.326,0-2.395-1.069-2.395-2.395c0-1.326,1.068-2.396,2.395-2.396h121.773
						c1.334,0,2.395,1.069,2.395,2.396C336.152,12.382,335.092,13.452,333.758,13.452z"/>
				</g>
			</g>
			<g>
				<g>
					<path d="M272.871,155.191c-1.326,0-2.395-1.069-2.395-2.395V94.499c0-1.317,1.068-2.386,2.395-2.386
						c1.316,0,2.395,1.069,2.395,2.386v58.297C275.266,154.122,274.188,155.191,272.871,155.191z"/>
				</g>
			</g>
			<g>
				<g>
					<path d="M252.313,159.186c-0.564,0-1.121-0.195-1.572-0.583c-1.008-0.875-1.105-2.395-0.238-3.385l20.557-23.563
						c0.875-0.999,2.396-1.087,3.385-0.23c1,0.875,1.105,2.386,0.23,3.385l-20.559,23.554
						C253.648,158.912,252.984,159.186,252.313,159.186z"/>
				</g>
			</g>
			<g>
				<g>
					<path d="M293.43,159.186c-0.664,0-1.326-0.274-1.805-0.822l-20.566-23.554c-0.865-0.999-0.768-2.51,0.23-3.385
						c0.998-0.857,2.502-0.769,3.385,0.23l20.566,23.563c0.875,0.99,0.76,2.51-0.229,3.385
						C294.561,158.991,293.994,159.186,293.43,159.186z"/>
				</g>
			</g>
			<g>
				<g>
					<g>
						<path d="M303.611,76.486h-62.275c-1.326,0-2.404-1.069-2.404-2.396V31.473c0-1.326,1.078-2.395,2.404-2.395h62.275
							c1.324,0,2.395,1.069,2.395,2.395v42.618C306.006,75.417,304.936,76.486,303.611,76.486z M243.723,71.696h57.492V33.868
							h-57.492V71.696z"/>
					</g>
				</g>
				<g>
					<g>
						<g>
							<path d="M254.045,76.486c-0.539,0-1.078-0.186-1.529-0.557c-1.025-0.848-1.148-2.36-0.309-3.376l14.451-17.341
								c0.857-1.016,2.359-1.149,3.375-0.309c1.018,0.848,1.15,2.359,0.301,3.376L255.893,75.62
								C255.416,76.186,254.727,76.486,254.045,76.486z"/>
						</g>
					</g>
					<g>
						<g>
							<path d="M282.93,76.486c-0.689,0-1.361-0.301-1.84-0.866l-14.432-17.341c-0.85-1.017-0.707-2.528,0.309-3.376
								c1.016-0.84,2.52-0.707,3.377,0.309l14.432,17.341c0.84,1.016,0.707,2.537-0.309,3.376
								C284.008,76.301,283.477,76.486,282.93,76.486z"/>
						</g>
					</g>
				</g>
				<g>
					<g>
						<g>
							<path d="M275.699,67.816c-0.549,0-1.096-0.186-1.537-0.548c-1.018-0.848-1.15-2.359-0.311-3.376l13.135-15.794
								c0.857-1.017,2.377-1.149,3.375-0.318c1.025,0.849,1.158,2.36,0.318,3.376L277.537,66.95
								C277.061,67.524,276.379,67.816,275.699,67.816z"/>
						</g>
					</g>
					<g>
						<g>
							<path d="M303.619,69.795c-0.689,0-1.369-0.3-1.838-0.875l-14.795-17.765c-0.84-1.017-0.699-2.528,0.318-3.376
								c1.006-0.831,2.518-0.698,3.375,0.318l14.777,17.765c0.85,1.025,0.717,2.528-0.309,3.376
								C304.707,69.61,304.158,69.795,303.619,69.795z"/>
						</g>
					</g>
				</g>
				<g>
					<g>
						<path d="M259.402,45.729c0,2.351-1.9,4.242-4.262,4.242c-2.324,0-4.25-1.891-4.25-4.242c0-2.333,1.926-4.26,4.25-4.26
							C257.502,41.469,259.402,43.396,259.402,45.729z"/>
					</g>
				</g>
			</g>
		</g>
		<g>
			<g>
				<g>
					<path d="M97.325,128.747H25.824c-6.603,0-11.977-5.365-11.977-11.976V32.728c0-6.603,5.374-11.976,11.977-11.976h71.501
						c6.603,0,11.976,5.374,11.976,11.976v84.043C109.301,123.382,103.928,128.747,97.325,128.747z M25.824,25.542
						c-3.96,0-7.186,3.226-7.186,7.186v84.043c0,3.968,3.226,7.194,7.186,7.194h71.501c3.96,0,7.186-3.226,7.186-7.194V32.728
						c0-3.959-3.226-7.186-7.186-7.186H25.824z"/>
				</g>
			</g>
			<g>
				<g>
					<g>
						<path d="M45.188,25.542c-0.681,0-1.353-0.283-1.821-0.84c-0.865-1.007-0.75-2.519,0.266-3.376L60.02,7.335
							c1.007-0.857,2.519-0.742,3.376,0.265c0.856,1.008,0.742,2.519-0.266,3.376L46.744,24.968
							C46.284,25.356,45.728,25.542,45.188,25.542z"/>
					</g>
				</g>
				<g>
					<g>
						<path d="M77.97,25.542c-0.558,0-1.104-0.186-1.556-0.575L60.02,10.977c-1.008-0.857-1.132-2.368-0.266-3.376
							c0.866-1.007,2.377-1.123,3.376-0.265l16.396,13.991c1.008,0.857,1.122,2.369,0.265,3.376
							C79.322,25.26,78.641,25.542,77.97,25.542z"/>
					</g>
				</g>
			</g>
			<g>
				<g>
					<path d="M64.474,2.881c0,1.609-1.3,2.908-2.899,2.908c-1.59,0-2.89-1.299-2.89-2.908c0-1.591,1.3-2.881,2.89-2.881
						C63.174,0,64.474,1.29,64.474,2.881z"/>
				</g>
			</g>
			<g>
				<g>
					<g>
						<g>
							<path d="M77.006,103.823c-1.325,0-2.395-1.069-2.395-2.395V82.752c0-5.055-4.102-9.156-9.156-9.156h-7.778
								c-5.038,0-9.139,4.101-9.139,9.156v18.675c0,1.326-1.069,2.395-2.396,2.395c-1.325,0-2.395-1.069-2.395-2.395V82.752
								c0-7.689,6.248-13.947,13.929-13.947h7.778c7.689,0,13.946,6.258,13.946,13.947v18.675
								C79.401,102.753,78.332,103.823,77.006,103.823z"/>
						</g>
					</g>
				</g>
				<g>
					<g>
						<path d="M61.566,72.076c-5.613,0-10.182-4.578-10.182-10.182c0-5.612,4.568-10.182,10.182-10.182
							c5.611,0,10.182,4.569,10.182,10.182C71.748,67.498,67.178,72.076,61.566,72.076z M61.566,56.503
							c-2.979,0-5.393,2.421-5.393,5.391s2.414,5.392,5.393,5.392c2.969,0,5.391-2.422,5.391-5.392S64.535,56.503,61.566,56.503z"/>
					</g>
				</g>
			</g>
			<g>
				<g>
					<path d="M92.721,113.872H30.429c-1.326,0-2.396-1.069-2.396-2.396V38.022c0-1.317,1.069-2.395,2.396-2.395h62.292
						c1.326,0,2.395,1.078,2.395,2.395v73.455C95.115,112.803,94.047,113.872,92.721,113.872z M32.824,109.082h57.502V40.417H32.824
						V109.082z"/>
				</g>
			</g>
			<g>
				<g>
					<path d="M30.429,40.417c-0.61,0-1.22-0.229-1.697-0.698L17.074,28.052c-0.945-0.937-0.945-2.457,0-3.394
						c0.928-0.928,2.447-0.928,3.385,0l11.666,11.667c0.938,0.945,0.938,2.457,0,3.394C31.657,40.188,31.047,40.417,30.429,40.417z"
						/>
				</g>
			</g>
			<g>
				<g>
					<path d="M92.721,40.417c-0.609,0-1.229-0.229-1.697-0.698c-0.937-0.937-0.937-2.448,0-3.394l11.676-11.676
						c0.937-0.937,2.457-0.937,3.394,0c0.937,0.937,0.937,2.457,0,3.385L94.418,39.719C93.94,40.188,93.33,40.417,92.721,40.417z"/>
				</g>
			</g>
			<g>
				<g>
					<path d="M103.813,124.964c-0.619,0-1.229-0.229-1.697-0.698l-11.092-11.092c-0.937-0.928-0.937-2.448,0-3.385
						c0.938-0.937,2.457-0.937,3.395,0l11.083,11.092c0.937,0.928,0.937,2.448,0,3.385
						C105.041,124.734,104.422,124.964,103.813,124.964z"/>
				</g>
			</g>
			<g>
				<g>
					<path d="M18.789,125.53c-0.619,0-1.229-0.239-1.697-0.707c-0.945-0.937-0.945-2.457,0-3.385l11.64-11.649
						c0.937-0.937,2.457-0.937,3.394,0c0.938,0.937,0.938,2.458,0,3.385l-11.648,11.649C20.008,125.291,19.398,125.53,18.789,125.53
						z"/>
				</g>
			</g>
		</g>
		<g>
			<g>
				<path d="M256.424,296.458h-10.041c-1.326,0-2.404-1.061-2.404-2.387s1.078-2.404,2.404-2.404h10.041
					c1.324,0,2.395,1.078,2.395,2.404S257.748,296.458,256.424,296.458z M270.785,296.458c-1.316,0-2.387-1.061-2.387-2.387
					c-0.008-1.326,1.053-2.404,2.377-2.404c4.561-0.018,9.043-0.795,13.303-2.297c1.229-0.443,2.615,0.211,3.059,1.467
					c0.441,1.236-0.213,2.598-1.469,3.041c-4.771,1.695-9.773,2.563-14.865,2.58C270.803,296.458,270.793,296.458,270.785,296.458z
					 M297.371,287.088c-0.699,0-1.406-0.301-1.875-0.9c-0.83-1.043-0.652-2.547,0.381-3.359c3.553-2.828,6.602-6.223,9.051-10.041
					c0.715-1.131,2.209-1.432,3.314-0.725c1.113,0.707,1.439,2.193,0.725,3.307c-2.73,4.277-6.135,8.043-10.102,11.189
					C298.414,286.93,297.893,287.088,297.371,287.088z M312.555,263.313c-0.186,0-0.371-0.018-0.557-0.053
					c-1.291-0.318-2.076-1.607-1.777-2.898c0.734-3.076,1.115-6.24,1.115-9.422v-4.277c0-1.326,1.068-2.404,2.395-2.404
					s2.387,1.078,2.387,2.404v4.277c0,3.553-0.406,7.105-1.238,10.535C314.623,262.571,313.633,263.313,312.555,263.313z
					 M313.73,234.696c-1.326,0-2.395-1.078-2.395-2.404V217.92c0-1.326,1.068-2.387,2.395-2.387s2.387,1.061,2.387,2.387v14.371
					C316.117,233.618,315.057,234.696,313.73,234.696z M313.73,205.954c-1.326,0-2.395-1.061-2.395-2.387v-14.371
					c0-1.326,1.068-2.404,2.395-2.404s2.387,1.078,2.387,2.404v14.371C316.117,204.893,315.057,205.954,313.73,205.954z
					 M313.73,177.225c-1.326,0-2.395-1.07-2.395-2.396v-14.362c0-1.326,1.068-2.404,2.395-2.404s2.387,1.078,2.387,2.404v14.362
					C316.117,176.155,315.057,177.225,313.73,177.225z M313.73,148.492c-1.326,0-2.395-1.07-2.395-2.395v-14.362
					c0-1.326,1.068-2.396,2.395-2.396s2.387,1.069,2.387,2.396v14.362C316.117,147.422,315.057,148.492,313.73,148.492z
					 M313.73,119.767c-1.326,0-2.395-1.078-2.395-2.395v-14.371c0-1.326,1.068-2.395,2.395-2.395s2.387,1.069,2.387,2.395v14.371
					C316.117,118.689,315.057,119.767,313.73,119.767z"/>
			</g>
		</g>
		<g>
			<g>
				<path d="M213.328,52.366h-9.643c-1.326,0-2.396-1.069-2.396-2.395s1.07-2.395,2.396-2.395h9.643
					c1.324,0,2.395,1.069,2.395,2.395S214.652,52.366,213.328,52.366z M189.322,52.366h-14.371c-1.316,0-2.395-1.069-2.395-2.395
					s1.078-2.395,2.395-2.395h14.371c1.316,0,2.396,1.069,2.396,2.395S190.639,52.366,189.322,52.366z M160.59,52.366h-14.362
					c-1.325,0-2.403-1.069-2.403-2.395s1.078-2.395,2.403-2.395h14.362c1.316,0,2.395,1.069,2.395,2.395
					S161.906,52.366,160.59,52.366z M131.856,52.366h-14.362c-1.326,0-2.395-1.069-2.395-2.395s1.068-2.395,2.395-2.395h14.362
					c1.325,0,2.396,1.069,2.396,2.395S133.182,52.366,131.856,52.366z"/>
			</g>
		</g>
		<g>
			<g>
				<path d="M82.15,296.458H67.788c-1.326,0-2.396-1.061-2.396-2.387s1.069-2.404,2.396-2.404H82.15
					c1.325,0,2.404,1.078,2.404,2.404S83.476,296.458,82.15,296.458z M53.691,294.106c-0.266,0-0.521-0.053-0.787-0.123
					c-4.781-1.662-9.227-4.102-13.24-7.266c-1.033-0.813-1.219-2.314-0.397-3.357c0.813-1.043,2.325-1.221,3.358-0.408
					c3.589,2.83,7.574,5.004,11.853,6.488c1.246,0.441,1.909,1.803,1.476,3.059C55.609,293.469,54.681,294.106,53.691,294.106z
					 M31.516,276.678c-0.787,0-1.556-0.391-2.006-1.098c-2.775-4.277-4.791-8.943-5.992-13.857c-0.318-1.291,0.468-2.58,1.75-2.898
					c1.299-0.301,2.589,0.477,2.89,1.768c1.087,4.383,2.89,8.555,5.374,12.373c0.715,1.113,0.396,2.615-0.717,3.322
					C32.408,276.553,31.967,276.678,31.516,276.678z M24.604,249.278c-1.316,0-2.395-1.061-2.395-2.385v-14.371
					c0-1.326,1.078-2.387,2.395-2.387c1.326,0,2.404,1.061,2.404,2.387v14.371C27.008,248.217,25.93,249.278,24.604,249.278z
					 M24.604,220.555c-1.316,0-2.395-1.078-2.395-2.387v-14.371c0-1.326,1.078-2.404,2.395-2.404c1.326,0,2.404,1.078,2.404,2.404
					v14.371C27.008,219.477,25.93,220.555,24.604,220.555z M24.604,191.813c-1.316,0-2.395-1.061-2.395-2.387V175.06
					c0-1.317,1.078-2.387,2.395-2.387c1.326,0,2.404,1.07,2.404,2.387v14.367C27.008,190.752,25.93,191.813,24.604,191.813z
					 M24.604,163.092c-1.316,0-2.395-1.069-2.395-2.395v-14.362c0-1.326,1.078-2.395,2.395-2.395c1.326,0,2.404,1.069,2.404,2.395
					v14.362C27.008,162.023,25.93,163.092,24.604,163.092z"/>
			</g>
		</g>
	</g>
</g>
</svg>
